<?xml version="1.0" encoding="utf-8"?>
<!-- Generator: Adobe Illustrator 23.0.3, SVG Export Plug-In . SVG Version: 6.00 Build 0)  -->
<svg version="1.1" id="Layer_1" xmlns="http://www.w3.org/2000/svg" xmlns:xlink="http://www.w3.org/1999/xlink" x="0px" y="0px"
	 viewBox="0 0 50 50" style="enable-background:new 0 0 50 50;" xml:space="preserve">
<style type="text/css">
	.st0{fill:#FFFFFF;}
	.st1{fill:#00E5A8;}
</style>
<g id="Page-1">
	<g id="Gea_LP_Homepage" transform="translate(-1032.000000, -2662.000000)">
		<g id="CONTENT-PROCESOS" transform="translate(0.000000, 1787.000000)">
			<g id="Group-16" transform="translate(361.000000, 255.000000)">
				<g id="Group-10" transform="translate(672.000000, 621.000000)">
					<path class="st0" d="M24,48.1C10.7,48.1-0.1,37.3-0.1,24S10.7-0.1,24-0.1S48.1,10.7,48.1,24S37.3,48.1,24,48.1z M24,0.7
						C11.2,0.7,0.7,11.2,0.7,24S11.2,47.3,24,47.3S47.3,36.8,47.3,24S36.8,0.7,24,0.7z"/>
					<path id="Path" class="st1" d="M20.9,23.3c-0.2,0.2-0.3,0.4-0.3,0.7c0,0.2,0.1,0.5,0.3,0.7l4.9,5c0.4,0.4,0.9,0.4,1.3,0
						c0.4-0.4,0.4-1,0-1.3L22.9,24l4.3-4.3c0.2-0.2,0.3-0.4,0.3-0.7s-0.1-0.5-0.3-0.7c-0.4-0.4-0.9-0.4-1.3,0L20.9,23.3z"/>
				</g>
			</g>
		</g>
	</g>
</g>
</svg>
