<?xml version="1.0" encoding="utf-8"?>
<!-- Generator: Adobe Illustrator 23.0.3, SVG Export Plug-In . SVG Version: 6.00 Build 0)  -->
<svg version="1.1" id="Layer_1" xmlns="http://www.w3.org/2000/svg" xmlns:xlink="http://www.w3.org/1999/xlink" x="0px" y="0px"
	 viewBox="0 0 50 50" style="enable-background:new 0 0 50 50;" xml:space="preserve">
<style type="text/css">
	.st0{fill:#FFFFFF;}
	.st1{fill:#00E5A8;}
</style>
<g id="Page-1">
	<g id="Gea_LP_Homepage" transform="translate(-1032.000000, -2662.000000)">
		<g id="CONTENT-PROCESOS" transform="translate(0.000000, 1787.000000)">
			<g id="Group-16" transform="translate(361.000000, 255.000000)">
				<g id="Group-10" transform="translate(672.000000, 621.000000)">
					<path class="st0" d="M25-0.1c13.3,0,24.1,10.8,24.1,24.1S38.3,48.1,25,48.1S0.9,37.3,0.9,24S11.7-0.1,25-0.1z M25,47.3
						c12.8,0,23.3-10.4,23.3-23.3S37.8,0.7,25,0.7S1.7,11.2,1.7,24S12.2,47.3,25,47.3z"/>
					<path id="Path" class="st1" d="M28.1,24.7c0.2-0.2,0.3-0.4,0.3-0.7c0-0.2-0.1-0.5-0.3-0.7l-4.9-5c-0.4-0.4-0.9-0.4-1.3,0
						c-0.4,0.4-0.4,1,0,1.3l4.3,4.4l-4.3,4.3c-0.2,0.2-0.3,0.4-0.3,0.7s0.1,0.5,0.3,0.7c0.4,0.4,0.9,0.4,1.3,0L28.1,24.7z"/>
				</g>
			</g>
		</g>
	</g>
</g>
</svg>
