<?xml version="1.0" encoding="UTF-8"?>
<svg width="142px" height="142px" viewBox="0 0 142 142" version="1.1" xmlns="http://www.w3.org/2000/svg" xmlns:xlink="http://www.w3.org/1999/xlink">
    <!-- Generator: Sketch 54.1 (76490) - https://sketchapp.com -->
    <title>Group 25</title>
    <desc>Created with Sketch.</desc>
    <defs>
        <linearGradient x1="50%" y1="0%" x2="50%" y2="100%" id="linearGradient-1">
            <stop stop-color="#00D4EE" offset="0%"></stop>
            <stop stop-color="#1D3BAD" offset="100%"></stop>
        </linearGradient>
        <polygon id="path-2" points="0.000150649351 0.022826087 86.7277013 0.022826087 86.7277013 69.6195652 0.000150649351 69.6195652"></polygon>
        <polygon id="path-4" points="0 69.6195652 86.7277013 69.6195652 86.7277013 0.022826087 0 0.022826087"></polygon>
    </defs>
    <g id="Page-1" stroke="none" stroke-width="1" fill="none" fill-rule="evenodd">
        <g id="Gea_LP_Homepage" transform="translate(-481.000000, -3489.000000)">
            <g id="CONTENT-USUARIOS" transform="translate(0.000000, 3032.000000)">
                <g id="Group-11" transform="translate(361.000000, 386.000000)">
                    <g id="Group-25" transform="translate(121.000000, 72.000000)">
                        <g id="Group-26">
                            <circle id="Oval-Copy-4" stroke="url(#linearGradient-1)" stroke-width="2" cx="70" cy="70" r="70"></circle>
                            <g id="ic-admin" transform="translate(29.000000, 30.000000)">
                                <g id="Group-18">
                                    <path d="M33.1266623,12.87125 L37.4898442,12.87125 L37.4898442,7.81336957 L33.1266623,7.81336957 L33.1266623,12.87125 Z M30.4443506,15.5807065 L40.1721558,15.5807065 L40.1721558,5.10391304 L30.4443506,5.10391304 L30.4443506,15.5807065 Z" id="Fill-1" fill="#6665DD"></path>
                                    <path d="M33.1266623,25.1265761 L37.4898442,25.1265761 L37.4898442,20.0690761 L33.1266623,20.0690761 L33.1266623,25.1265761 Z M30.4443506,27.8360326 L40.1721558,27.8360326 L40.1721558,17.3504891 L30.4443506,17.3504891 L30.4443506,27.8360326 Z" id="Fill-2" fill="#1D3BAD"></path>
                                    <path d="M33.1266623,37.4096739 L37.4898442,37.4096739 L37.4898442,32.3521739 L33.1266623,32.3521739 L33.1266623,37.4096739 Z M30.4443506,40.1191304 L40.1721558,40.1191304 L40.1721558,29.6065761 L30.4443506,29.6065761 L30.4443506,40.1191304 Z" id="Fill-3" fill="#663366"></path>
                                    <path d="M49.2382338,12.87125 L53.6014156,12.87125 L53.6014156,7.81336957 L49.2382338,7.81336957 L49.2382338,12.87125 Z M46.5559221,15.5807065 L56.2837273,15.5807065 L56.2837273,5.10391304 L46.5559221,5.10391304 L46.5559221,15.5807065 Z" id="Fill-4" fill="#663366"></path>
                                    <path d="M49.2382338,25.1265761 L53.6014156,25.1265761 L53.6014156,20.0690761 L49.2382338,20.0690761 L49.2382338,25.1265761 Z M46.5559221,27.8360326 L56.2837273,27.8360326 L56.2837273,17.3504891 L46.5559221,17.3504891 L46.5559221,27.8360326 Z" id="Fill-5" fill="#6665DD"></path>
                                    <path d="M49.2382338,37.4096739 L53.6014156,37.4096739 L53.6014156,32.3521739 L49.2382338,32.3521739 L49.2382338,37.4096739 Z M46.5559221,40.1191304 L56.2837273,40.1191304 L56.2837273,29.6065761 L46.5559221,29.6065761 L46.5559221,40.1191304 Z" id="Fill-6" fill="#00D4EE"></path>
                                    <polygon id="Fill-7" fill="#6665DD" points="17.2741325 34.6821848 17.2741325 25.5601196 8.88748312 25.5601196 8.88748312 28.2699565 14.5918208 28.2699565 14.5918208 34.6821848"></polygon>
                                    <g id="Group-17" transform="translate(0.000000, 0.357609)">
                                        <g id="Group-10">
                                            <mask id="mask-3" fill="white">
                                                <use xlink:href="#path-2"></use>
                                            </mask>
                                            <g id="Clip-9"></g>
                                            <path d="M51.3482286,66.7023913 L51.2318519,45.3790217 L35.6475532,45.4870652 L35.7643065,66.8557065 L25.0346831,66.8557065 L24.6147481,3.00353261 L61.6929429,2.73228261 L62.1222935,66.6209783 L51.3482286,66.7023913 Z M38.4462416,66.7925543 L38.3212026,48.1790217 L48.5408779,48.1063587 L48.6659169,66.7206522 L43.5517481,66.7206522 L38.4462416,66.7925543 Z M64.4558519,15.9721739 L64.3752545,0.022826087 L21.9143584,0.311576087 L22.0216961,15.9272826 L0.000150649351,15.9272826 L0.000150649351,26.1236957 L2.68246234,26.1236957 L2.68246234,18.6367391 L22.0307351,18.6367391 L22.3523714,66.8108152 L9.93359221,66.8108152 L9.93359221,58.8357609 C14.5558909,58.3484239 17.1847221,55.2775543 17.1847221,50.2379348 C17.0201377,46.3647283 16.0062675,42.5767391 14.2161766,39.1471196 C13.0806571,36.8530978 10.8367351,33.0148913 8.59243636,33.0148913 C6.34813766,33.0148913 4.12154026,36.8622283 2.96831948,39.1471196 C1.17860519,42.5767391 0.164735065,46.3647283 0.000150649351,50.2379348 C0.000150649351,55.2775543 2.62860519,58.3663043 7.25128052,58.8357609 L7.25128052,66.8108152 L1.78835844,66.8108152 L1.78835844,69.5202717 L22.3523714,69.5202717 L22.3523714,69.6195652 L43.5694494,69.475 L51.3659299,69.4209783 L64.7774883,69.3304348 L64.437774,18.6816304 L84.0455403,18.6816304 L84.0455403,53.9045652 L86.7278519,53.9045652 L86.7278519,15.9721739 L64.4558519,15.9721739 Z" id="Fill-8" fill="#667080" mask="url(#mask-3)"></path>
                                        </g>
                                        <mask id="mask-5" fill="white">
                                            <use xlink:href="#path-4"></use>
                                        </mask>
                                        <g id="Clip-12"></g>
                                        <path d="M72.1361818,33.0148913 L76.4993636,33.0148913 L76.4993636,27.9570109 L72.1361818,27.9570109 L72.1361818,33.0148913 Z M69.4538701,35.7243478 L79.1816753,35.7243478 L79.1816753,25.2475543 L69.4538701,25.2475543 L69.4538701,35.7243478 Z" id="Fill-11" fill="#6665DD" mask="url(#mask-5)"></path>
                                        <path d="M72.1361818,45.2705978 L76.4993636,45.2705978 L76.4993636,40.2130978 L72.1361818,40.2130978 L72.1361818,45.2705978 Z M69.4538701,47.9800543 L79.1816753,47.9800543 L79.1816753,37.5036413 L69.4538701,37.5036413 L69.4538701,47.9800543 Z" id="Fill-13" fill="#00D4EE" mask="url(#mask-5)"></path>
                                        <polygon id="Fill-14" fill="#1D3BAD" mask="url(#mask-5)" points="70.795026 52.4688043 77.8405195 52.4688043 77.8405195 49.7593478 70.795026 49.7593478"></polygon>
                                        <path d="M82.7043468,66.8016087 L70.7055026,66.8016087 C69.9646844,66.8012283 69.3647234,66.1944348 69.3651,65.4461196 C69.3654766,64.6981848 69.9665675,64.0917717 70.7070091,64.0921522 C70.9706455,64.0925326 71.2282558,64.1709022 71.4478273,64.3181304 L73.1912169,65.4830217 L73.5132299,63.3970978 C73.7614247,61.7901413 75.2521,60.6910652 76.8429571,60.9425326 C77.9826195,61.1220978 78.9102429,61.964 79.2085286,63.0897065 L79.4766844,64.1012826 L82.7043468,64.1012826 C83.4451649,64.1012826 84.0455026,64.7076957 84.0455026,65.4560109 C84.0455026,66.2043261 83.4451649,66.8107391 82.7043468,66.8107391 L82.7043468,66.8016087 Z M82.7043468,61.3830761 L81.4257104,61.3830761 C80.0947234,58.5648152 76.754074,57.3698696 73.9640481,58.7143261 C72.807061,59.2720435 71.8745416,60.214 71.3224117,61.3830761 C69.1251909,61.0494348 67.0759831,62.5780217 66.7456844,64.7978587 C66.4157623,67.0176957 67.9294117,69.0876413 70.1266325,69.4209022 C70.3183338,69.4501957 70.5119182,69.4650326 70.7055026,69.4661739 L82.7043468,69.4661739 C84.9264247,69.4661739 86.7278143,67.6465543 86.7278143,65.4016087 C86.7278143,63.1574239 84.9264247,61.3378043 82.7043468,61.3378043 L82.7043468,61.3830761 Z" id="Fill-15" fill="#00E5A8" mask="url(#mask-5)"></path>
                                        <path d="M2.76272078,51.8635707 C1.7883961,45.7762337 6.84870779,36.6906902 8.59247403,35.7605272 C10.3806818,36.6636793 15.378474,45.7762337 14.3770325,51.8635707 C13.885539,54.8260163 12.052513,56.2077554 8.59247403,56.2077554 C5.13205844,56.2077554 3.29903247,54.8168859 2.80753896,51.8548207 L2.76272078,51.8635707 Z" id="Fill-16" fill="#00E5A8" mask="url(#mask-5)"></path>
                                    </g>
                                </g>
                            </g>
                        </g>
                    </g>
                </g>
            </g>
        </g>
    </g>
</svg>