<?xml version="1.0" encoding="UTF-8"?>
<svg width="142px" height="142px" viewBox="0 0 142 142" version="1.1" xmlns="http://www.w3.org/2000/svg" xmlns:xlink="http://www.w3.org/1999/xlink">
    <!-- Generator: Sketch 54.1 (76490) - https://sketchapp.com -->
    <title>Group 27</title>
    <desc>Created with Sketch.</desc>
    <defs>
        <linearGradient x1="50%" y1="0%" x2="50%" y2="100%" id="linearGradient-1">
            <stop stop-color="#00D8F2" offset="0%"></stop>
            <stop stop-color="#1D3BAD" offset="100%"></stop>
        </linearGradient>
    </defs>
    <g id="Page-1" stroke="none" stroke-width="1" fill="none" fill-rule="evenodd">
        <g id="Gea_LP_Homepage" transform="translate(-888.000000, -3489.000000)">
            <g id="CONTENT-USUARIOS" transform="translate(0.000000, 3032.000000)">
                <g id="Group-11-Copy" transform="translate(768.000000, 386.000000)">
                    <g id="Group-27" transform="translate(121.000000, 72.000000)">
                        <circle id="Oval-Copy-4" stroke="url(#linearGradient-1)" stroke-width="2" cx="70" cy="70" r="70"></circle>
                        <g id="Group-8" transform="translate(28.000000, 29.000000)">
                            <path d="M24.6193323,72.0549308 L32.7329607,72.0549308 L32.7329607,66.6615614 L24.6193323,66.6615614 L24.6193323,72.0549308 Z M27.2688549,33.4567374 L30.0841817,33.4567374 L30.0841817,23.2597549 L27.2688549,23.2597549 L27.2688549,33.4567374 Z M2.98633572,14.4527024 L18.5994475,14.4527024 L18.5994475,12.1355402 L2.98633572,12.1355402 L2.98633572,14.4527024 Z M6.56934376,19.4671002 L11.1765464,19.4671002 L11.1765464,16.9806493 L6.56934376,16.9806493 L6.56934376,19.4671002 Z M27.2688549,9.60722619 L30.0841817,9.60722619 L30.0841817,2.52831405 L27.2688549,2.52831405 L27.2688549,9.60722619 Z M72.4951304,14.4523352 L39.3290711,14.4523352 L39.3290711,12.1355402 L71.1066125,12.1355402 L72.4951304,14.4523352 Z M30.4949748,60.1720384 L32.7337042,57.979364 L32.7337042,62.3647128 L30.4949748,60.1720384 Z M28.6767041,61.9519568 L30.9042808,64.1332473 L26.4487557,64.1332473 L28.6767041,61.9519568 Z M24.6193323,57.979364 L26.8584335,60.1720384 L24.6193323,62.3647128 L24.6193323,57.979364 Z M26.8584335,50.0591494 L24.6193323,52.2518238 L24.6193323,47.866475 L26.8584335,50.0591494 Z M26.8584335,39.9462604 L24.6193323,42.1385676 L24.6193323,37.753586 L26.8584335,39.9462604 Z M30.9042808,35.9850514 L28.6767041,38.1659748 L26.4487557,35.9850514 L30.9042808,35.9850514 Z M32.7337042,42.1378331 L30.4949748,39.9462604 L32.7337042,37.753586 L32.7337042,42.1378331 Z M30.559289,56.5486724 L28.6767041,58.39212 L26.7937475,56.5486724 L30.559289,56.5486724 Z M30.9042808,54.0203584 L26.4487557,54.0203584 L28.6767041,51.8390678 L30.9042808,54.0203584 Z M26.4487557,43.9074694 L28.6767041,41.7261788 L30.9042808,43.9074694 L26.4487557,43.9074694 Z M30.559289,46.4357834 L28.6767041,48.279231 L26.7937475,46.4357834 L30.559289,46.4357834 Z M32.7337042,52.2518238 L30.4949748,50.0591494 L32.7337042,47.866475 L32.7337042,52.2518238 Z M86,34.9733586 L64.5525109,34.9733586 L64.5525109,49.8902279 L47.9895562,49.8902279 L47.9895562,63.0785897 L44.2801503,63.0785897 L44.2801503,43.9074694 L38.0494785,43.9074694 L38.0494785,46.4357834 L41.720965,46.4357834 L41.720965,65.6080054 L47.9895562,65.6080054 L47.9895562,79.4716859 L42.0217176,79.4716859 L42.0217176,72.0545636 L35.293633,72.0545636 L35.293633,33.4563702 L32.6437387,33.4563702 L32.6437387,23.2597549 L39.3290711,23.2597549 L39.3290711,16.9806493 L64.5525109,16.9806493 L64.5525109,24.5733031 L65.8321035,24.5733031 C67.2317741,24.5733031 68.3700985,25.6977326 68.3700985,27.0803183 C68.3700985,28.4625368 67.2317741,29.5873336 65.8321035,29.5873336 L65.8321035,32.1156476 C68.6437127,32.1156476 70.9296555,29.8561391 70.9296555,27.0803183 C70.9296555,24.7403884 69.305071,22.7684137 67.1120679,22.2058316 L67.1120679,16.9806493 L76.982255,16.9806493 L72.5668798,9.60722619 L32.6437387,9.60722619 L32.6437387,0 L24.7092979,0 L24.7092979,9.60722619 L0.426778713,9.60722619 L0.426778713,16.9806493 L4.01015852,16.9806493 L4.01015852,21.9954142 L13.7364751,21.9954142 L13.7364751,16.9806493 L18.5994475,16.9806493 L18.5994475,23.2597549 L24.7092979,23.2597549 L24.7092979,33.4563702 L22.0597753,33.4563702 L22.0597753,72.0545636 L15.3302036,72.0545636 L15.3302036,79.4716859 L0,79.4716859 L0,82 L85.9988847,82 L85.9988847,79.4716859 L50.5491132,79.4716859 L50.5491132,52.4196436 L67.1120679,52.4196436 L67.1120679,37.5027743 L86,37.5027743 L86,34.9733586 Z" id="Fill-1" fill="#667080"></path>
                            <polygon id="Fill-3" fill="#6665DD" points="55.610693 72 55.610693 58.423997 66 58.423997 66 56 53 56 53 72"></polygon>
                            <polygon id="Fill-4" fill="#6665DD" points="20 46.393617 20 44 10.1125568 44 10.1125568 56.606383 2 56.606383 2 59 12.6478458 59 12.6478458 46.393617"></polygon>
                            <polygon id="Fill-5" fill="#00E5A8" points="21 20 37 20 37 12 21 12"></polygon>
                            <path d="M74.4816292,53.4160075 L78.5183708,53.4160075 L78.5183708,48.5927001 L74.4816292,48.5927001 L74.4816292,53.4160075 Z M72,56 L81,56 L81,46 L72,46 L72,56 Z" id="Fill-6" fill="#6665DD"></path>
                            <path d="M74.4816292,64.4226468 L78.5183708,64.4226468 L78.5183708,59.6117323 L74.4816292,59.6117323 L74.4816292,64.4226468 Z M72,67 L81,67 L81,57 L72,57 L72,67 Z" id="Fill-7" fill="#00D4EE"></path>
                        </g>
                    </g>
                </g>
            </g>
        </g>
    </g>
</svg>