<?xml version="1.0" encoding="UTF-8"?>
<svg width="66px" height="66px" viewBox="0 0 66 66" version="1.1" xmlns="http://www.w3.org/2000/svg" xmlns:xlink="http://www.w3.org/1999/xlink">
    <!-- Generator: Sketch 54.1 (76490) - https://sketchapp.com -->
    <title>Group 22</title>
    <desc>Created with Sketch.</desc>
    <defs>
        <linearGradient x1="50%" y1="1.30120355%" x2="50%" y2="100%" id="linearGradient-1">
            <stop stop-color="#00D4EE" offset="0%"></stop>
            <stop stop-color="#1D3BAD" offset="100%"></stop>
        </linearGradient>
    </defs>
    <g id="Page-1" stroke="none" stroke-width="1" fill="none" fill-rule="evenodd">
        <g id="Gea_LP_Homepage" transform="translate(-853.000000, -1396.000000)">
            <g id="CONTENT-CARACTERISTICAS" transform="translate(0.000000, 684.000000)">
                <g id="Group-17" transform="translate(361.000000, 200.000000)">
                    <g id="Group-18" transform="translate(493.000000, 2.000000)">
                        <g id="Group-6-Copy-2" transform="translate(0.000000, 511.000000)">
                            <g id="Group-22">
                                <circle id="Oval" stroke="url(#linearGradient-1)" stroke-width="2" cx="32" cy="32" r="32"></circle>
                                <g id="ic-alerts" transform="translate(13.000000, 15.000000)">
                                    <g id="Group-19">
                                        <path d="M3.56244485,2.09330426 C3.83768727,1.87155957 4.23730545,1.91943191 4.45430545,2.19996383 C4.67186909,2.48030426 4.62489939,2.88721915 4.34984485,3.10896383 C2.39233576,4.68530426 1.26994788,7.0461766 1.26994788,9.58609149 C1.26994788,12.1976234 2.44381455,14.5989 4.4911297,16.1740915 C4.77106909,16.3893255 4.82649333,16.795283 4.61531758,17.0806021 C4.4901903,17.2491128 4.30043273,17.3375809 4.10804485,17.3375809 C3.97465091,17.3375809 3.84050545,17.2950702 3.72589939,17.2069851 C1.35806303,15.3849638 7.51515152e-05,12.6068362 7.51515152e-05,9.58609149 C7.51515152e-05,6.64787872 1.2981297,3.91685745 3.56244485,2.09330426" id="Fill-1" fill="#00D4EE"></path>
                                        <path d="M5.98891818,4.12487234 C6.27543333,3.91959574 6.67129394,3.98987234 6.87307576,4.2822766 C7.07504545,4.57506383 7.0055303,4.97834043 6.71863939,5.18361702 C5.30992424,6.19276596 4.46916667,7.83842553 4.46916667,9.58576596 C4.46916667,11.4014681 5.36196667,13.0827447 6.85785758,14.0832766 C7.15094848,14.2795532 7.23248788,14.6803404 7.04047576,14.9794468 C6.91835455,15.1684468 6.71563333,15.2714681 6.50915455,15.2714681 C6.38985152,15.2714681 6.2686697,15.237 6.16120303,15.165383 C4.30665152,13.9251064 3.19929394,11.8390213 3.19929394,9.58576596 C3.19929394,7.41753191 4.24183333,5.37606383 5.98891818,4.12487234" id="Fill-3" fill="#6665DD"></path>
                                        <path d="M8.53957939,6.16262553 C8.85559152,6.0084766 9.23510667,6.1434766 9.38710061,6.4655617 C9.53909455,6.7878383 9.40570061,7.17426383 9.09006424,7.32917872 C8.24216727,7.74471064 7.69431273,8.63054043 7.69431273,9.58568936 C7.69431273,10.6090085 8.29665212,11.5193489 9.22871879,11.9053915 C9.55374909,12.0400085 9.71006424,12.4176255 9.57798545,12.7485191 C9.47765818,12.9999447 9.24017939,13.1523702 8.98973697,13.1523702 C8.91007636,13.1523702 8.82910061,13.1368596 8.75094303,13.1044979 C7.33753091,12.5193064 6.42387636,11.1379021 6.42387636,9.58568936 C6.42444,8.13611489 7.25486424,6.79243404 8.53957939,6.16262553" id="Fill-5" fill="#1D3BAD"></path>
                                        <path d="M21.2445255,2.10619149 C20.9144224,2.10542553 20.646883,2.37714894 20.6459436,2.71378723 C20.6448164,3.05023404 20.9116042,3.32329787 21.2415194,3.32406383 C21.5725618,3.32502128 21.8402891,3.05368085 21.8414164,2.71704255 C21.8414164,2.38078723 21.5748164,2.10714894 21.2445255,2.10619149" id="Fill-7" fill="#667080"></path>
                                        <path d="M29.5726473,4.49214894 L12.9145624,4.49214894 L12.9145624,3.18523404 C12.9145624,2.14238298 13.7466776,1.29485106 14.7693018,1.29485106 L27.71772,1.29485106 C28.74072,1.29485106 29.5726473,2.14276596 29.5726473,3.18523404 L29.5726473,4.49214894 Z M12.9145624,30.0226596 L29.5726473,30.0226596 L29.5726473,5.78642553 L12.9145624,5.78642553 L12.9145624,30.0226596 Z M29.5726473,32.624234 C29.5726473,33.6668936 28.7403442,34.5148085 27.71772,34.5148085 L14.7698655,34.5148085 C13.7466776,34.5148085 12.9149382,33.6665106 12.9149382,32.624234 L12.9149382,31.3171277 L29.573023,31.3171277 L29.573023,32.624234 L29.5726473,32.624234 Z M27.71772,0 L14.7698655,0 C13.0464533,0 11.6448776,1.42889362 11.6448776,3.18485106 L11.6448776,32.6238511 C11.6448776,34.3801915 13.047017,35.8087021 14.7698655,35.8087021 L27.71772,35.8087021 C29.4409442,35.8087021 30.84252,34.3798085 30.84252,32.6238511 L30.84252,3.18485106 C30.84252,1.42889362 29.4409442,0 27.71772,0 L27.71772,0 Z" id="Fill-9" fill="#663366"></path>
                                        <path d="M19.2517891,33.5630106 L23.2357588,33.5630106 C23.5867164,33.5630106 23.8707891,33.2734787 23.8707891,32.9159681 C23.8707891,32.558266 23.5867164,32.268734 23.2357588,32.268734 L19.2517891,32.268734 C18.9008315,32.268734 18.6167588,32.558266 18.6167588,32.9159681 C18.6167588,33.2734787 18.9008315,33.5630106 19.2517891,33.5630106" id="Fill-11" fill="#667080"></path>
                                        <path d="M16.8495521,21.114517 L25.6379582,21.114517 L21.2438491,13.357283 L16.8495521,21.114517 Z M26.7378006,22.4087936 L15.7497097,22.4087936 C15.5227521,22.4087936 15.3132673,22.285283 15.1999764,22.0851766 C15.0863097,21.8848787 15.0863097,21.6380489 15.1999764,21.4379426 L20.6939279,11.7393894 C20.8072188,11.5390915 21.0168915,11.4157723 21.2438491,11.4157723 C21.4706188,11.4157723 21.6801036,11.5390915 21.7935824,11.7393894 L27.2877218,21.4379426 C27.4010127,21.6380489 27.4010127,21.8848787 27.2877218,22.0851766 C27.174243,22.285283 26.9647582,22.4087936 26.7378006,22.4087936 L26.7378006,22.4087936 Z" id="Fill-13" fill="#00E5A8"></path>
                                        <path d="M21.2450703,19.1091064 C20.8944885,19.1083404 20.61004,19.3969149 20.6087248,19.754617 C20.6074097,20.1121277 20.8907309,20.402617 21.2411248,20.403383 C21.5930218,20.4043404 21.8774703,20.1161489 21.8787855,19.7584468 C21.8787855,19.4007447 21.5954642,19.1100638 21.2450703,19.1091064" id="Fill-15" fill="#00E5A8"></path>
                                        <path d="M21.2437927,18.5982128 C20.8928352,18.5982128 20.6087624,18.3086809 20.6087624,17.9511702 L20.6087624,16.0096596 C20.6087624,15.6519574 20.8928352,15.362617 21.2437927,15.362617 C21.5945624,15.362617 21.878823,15.6519574 21.878823,16.0096596 L21.878823,17.9511702 C21.878823,18.3082979 21.5945624,18.5982128 21.2437927,18.5982128" id="Fill-17" fill="#00E5A8"></path>
                                    </g>
                                </g>
                            </g>
                        </g>
                    </g>
                </g>
            </g>
        </g>
    </g>
</svg>