<?xml version="1.0" encoding="UTF-8"?>
<svg width="66px" height="66px" viewBox="0 0 66 66" version="1.1" xmlns="http://www.w3.org/2000/svg" xmlns:xlink="http://www.w3.org/1999/xlink">
    <!-- Generator: Sketch 54.1 (76490) - https://sketchapp.com -->
    <title>Group 20</title>
    <desc>Created with Sketch.</desc>
    <defs>
        <polygon id="path-1" points="0.0476679612 0.142937736 2.84702913 0.142937736 2.84702913 1.56774906 0.0476679612 1.56774906"></polygon>
        <polygon id="path-3" points="0.166919417 0.186688679 24.6625631 0.186688679 24.6625631 7.31116038 0.166919417 7.31116038"></polygon>
        <polygon id="path-5" points="0.0905446602 0.198788679 15.4878058 0.198788679 15.4878058 11.5981094 0.0905446602 11.5981094"></polygon>
        <linearGradient x1="50%" y1="0%" x2="50%" y2="100%" id="linearGradient-7">
            <stop stop-color="#00D4EE" offset="0%"></stop>
            <stop stop-color="#1D3BAD" offset="100%"></stop>
        </linearGradient>
    </defs>
    <g id="Page-1" stroke="none" stroke-width="1" fill="none" fill-rule="evenodd">
        <g id="Gea_LP_Homepage" transform="translate(-853.000000, -1142.000000)">
            <g id="CONTENT-CARACTERISTICAS" transform="translate(0.000000, 684.000000)">
                <g id="Group-20" transform="translate(854.000000, 459.000000)">
                    <g id="ic-fuga" transform="translate(11.000000, 17.000000)">
                        <g id="Group-32">
                            <path d="M22.396133,4.48239623 L19.5966087,4.48239623 C19.2102495,4.48239623 18.8966767,4.16381132 18.8966767,3.76988679 L18.8966767,2.34486792 C18.8966767,1.16641509 19.8388223,0.20754717 20.9962689,0.20754717 C22.1539194,0.20754717 23.096065,1.16641509 23.096065,2.34486792 L23.096065,3.76988679 C23.096065,4.16381132 22.7824922,4.48239623 22.396133,4.48239623 L22.396133,4.48239623 Z M20.2965408,3.05737736 L21.696201,3.05737736 L21.696201,2.34486792 C21.696201,1.95177358 21.3820165,1.63256604 20.9962689,1.63256604 C20.6107252,1.63256604 20.2965408,1.95177358 20.2965408,2.34486792 L20.2965408,3.05737736 Z" id="Fill-1" fill="#00E5A8"></path>
                            <path d="M34.2940398,14.4566358 L27.2953311,14.4566358 C26.9089718,14.4566358 26.595399,14.1382585 26.595399,13.7441264 C26.595399,13.3502019 26.9089718,13.0318245 27.2953311,13.0318245 L34.2940398,13.0318245 C34.6810107,13.0318245 34.9939718,13.3502019 34.9939718,13.7441264 C34.9939718,14.1382585 34.6810107,14.4566358 34.2940398,14.4566358" id="Fill-3" fill="#00D4EE"></path>
                            <path d="M37.7934146,13.7441887 C37.7934146,13.3508868 37.4798417,13.0316792 37.0934825,13.0316792 C36.7073272,13.0316792 36.3937544,13.3508868 36.3937544,13.7441887 C36.3937544,14.1376981 36.7073272,14.4566981 37.0934825,14.4566981 C37.4798417,14.4566981 37.7934146,14.1376981 37.7934146,13.7441887" id="Fill-5" fill="#00D4EE"></path>
                            <g id="Group-9" transform="translate(39.145631, 12.888887)">
                                <mask id="mask-2" fill="white">
                                    <use xlink:href="#path-1"></use>
                                </mask>
                                <g id="Clip-8"></g>
                                <path d="M2.14726019,1.56774906 L0.747396117,1.56774906 C0.360425243,1.56774906 0.0476679612,1.2493717 0.0476679612,0.855239623 C0.0476679612,0.461315094 0.360425243,0.142937736 0.747396117,0.142937736 L2.14726019,0.142937736 C2.53423107,0.142937736 2.84719223,0.461315094 2.84719223,0.855239623 C2.84719223,1.2493717 2.53423107,1.56774906 2.14726019,1.56774906" id="Fill-7" fill="#00D4EE" mask="url(#mask-2)"></path>
                            </g>
                            <path d="M23.7960379,10.1816415 L18.1969893,10.1816415 C17.8106301,10.1816415 17.4970573,9.86326415 17.4970573,9.46913208 L17.4970573,6.61930189 C17.4970573,6.226 17.8106301,5.90679245 18.1969893,5.90679245 L23.7960379,5.90679245 C24.1823971,5.90679245 24.4959699,6.226 24.4959699,6.61930189 L24.4959699,9.46913208 C24.4959699,9.86326415 24.1823971,10.1816415 23.7960379,10.1816415 L23.7960379,10.1816415 Z M18.8969214,8.75683019 L23.0963097,8.75683019 L23.0963097,7.33181132 L18.8969214,7.33181132 L18.8969214,8.75683019 Z" id="Fill-10" fill="#6665DD"></path>
                            <g id="Group-14" transform="translate(17.330097, 0.020962)">
                                <mask id="mask-4" fill="white">
                                    <use xlink:href="#path-3"></use>
                                </mask>
                                <g id="Clip-13"></g>
                                <path d="M7.86556019,7.31116038 L0.866647573,7.31116038 C0.480492233,7.31116038 0.166919417,6.99278302 0.166919417,6.59865094 L0.166919417,3.7490283 C0.166919417,3.35489623 0.480492233,3.03631132 0.866647573,3.03631132 L6.22022039,3.03631132 L9.52843398,0.342764151 C9.65239515,0.241481132 9.80632718,0.186688679 9.96515243,0.186688679 L23.9627738,0.186688679 C24.3499485,0.186688679 24.6627058,0.505066038 24.6627058,0.898990566 L24.6627058,3.7490283 C24.6627058,4.14274528 24.3499485,4.46153774 23.9627738,4.46153774 L11.6106961,4.46153774 L8.30309417,7.15508491 C8.17852136,7.25616038 8.02438544,7.31116038 7.86556019,7.31116038 L7.86556019,7.31116038 Z M1.56657961,5.88634906 L7.61988058,5.88634906 L10.9280942,3.19238679 C11.0520553,3.09131132 11.2059874,3.03631132 11.3650165,3.03631132 L23.2628417,3.03631132 L23.2628417,1.6115 L10.210832,1.6115 L6.9032301,4.30546226 C6.77865728,4.40653774 6.62472524,4.46153774 6.46569612,4.46153774 L1.56657961,4.46153774 L1.56657961,5.88634906 Z" id="Fill-12" fill="#6665DD" mask="url(#mask-4)"></path>
                            </g>
                            <path d="M4.19963301,32.8134151 C3.23587573,32.8134151 2.33083689,32.4315283 1.64925437,31.7374906 C0.274671845,30.3390377 0.245312621,28.1375849 1.5772835,26.2603208 L3.62773981,23.3071321 C3.89034175,22.9287736 4.50831262,22.9287736 4.77071068,23.3071321 L6.82544854,26.2659245 C8.51156505,29.0182075 7.71234175,30.7572453 6.74919612,31.7374906 C6.06761359,32.4315283 5.16196311,32.8134151 4.19963301,32.8134151 L4.19963301,32.8134151 Z M4.19963301,24.9521509 L2.71597282,27.0880189 C1.78279806,28.4032453 1.75486602,29.8303396 2.63972039,30.7302642 C3.47319612,31.5795472 4.92545825,31.5795472 5.75954563,30.7302642 C6.08718641,30.3967358 7.08458447,29.3822453 5.66025437,27.0531509 L4.19963301,24.9521509 Z" id="Fill-15" fill="#00D4EE"></path>
                            <path d="M14.6974311,21.5813358 L2.09967379,21.5813358 C0.942023301,21.5813358 8.15533981e-05,20.6222604 8.15533981e-05,19.4438075 L8.15533981e-05,12.3193358 C8.15533981e-05,11.140883 0.942023301,10.1820151 2.09967379,10.1820151 L14.6974311,10.1820151 C15.0837903,10.1820151 15.3973631,10.5003925 15.3973631,10.8945245 L15.3973631,20.8688264 C15.3973631,21.2627509 15.0837903,21.5813358 14.6974311,21.5813358 L14.6974311,21.5813358 Z M2.09967379,11.6068264 C1.71392621,11.6068264 1.39974175,11.926034 1.39974175,12.3193358 L1.39974175,19.4438075 C1.39974175,19.837317 1.71392621,20.156317 2.09967379,20.156317 L13.997499,20.156317 L13.997499,11.6068264 L2.09967379,11.6068264 Z" id="Fill-17" fill="#1D3BAD"></path>
                            <g id="Group-21" transform="translate(26.504854, 9.983226)">
                                <mask id="mask-6" fill="white">
                                    <use xlink:href="#path-5"></use>
                                </mask>
                                <g id="Clip-20"></g>
                                <path d="M13.388234,11.5981094 L0.790476699,11.5981094 C0.404117476,11.5981094 0.0905446602,11.2795245 0.0905446602,10.8856 L0.0905446602,0.911298113 C0.0905446602,0.517166038 0.404117476,0.198788679 0.790476699,0.198788679 L13.388234,0.198788679 C14.5458845,0.198788679 15.4878262,1.1576566 15.4878262,2.33610943 L15.4878262,9.46058113 C15.4878262,10.639034 14.5458845,11.5981094 13.388234,11.5981094 L13.388234,11.5981094 Z M1.49040874,10.1730906 L13.388234,10.1730906 C13.7745932,10.1730906 14.088166,9.85409057 14.088166,9.46058113 L14.088166,2.33610943 C14.088166,1.94280755 13.7745932,1.6236 13.388234,1.6236 L1.49040874,1.6236 L1.49040874,10.1730906 Z" id="Fill-19" fill="#1D3BAD" mask="url(#mask-6)"></path>
                            </g>
                            <path d="M4.19922524,21.5813358 C3.81286602,21.5813358 3.4992932,21.2627509 3.4992932,20.8688264 L3.4992932,18.0189962 C3.4992932,17.6250717 3.81286602,17.3064868 4.19922524,17.3064868 C4.58558447,17.3064868 4.89915728,17.6250717 4.89915728,18.0189962 L4.89915728,20.8688264 C4.89915728,21.2627509 4.58558447,21.5813358 4.19922524,21.5813358" id="Fill-22" fill="#00D4EE"></path>
                            <path d="M6.99874951,18.7314019 C6.61239029,18.7314019 6.29881748,18.4130245 6.29881748,18.0188925 L6.29881748,15.1692698 C6.29881748,14.7751377 6.61239029,14.4565528 6.99874951,14.4565528 C7.38510874,14.4565528 7.69868155,14.7751377 7.69868155,15.1692698 L7.69868155,18.0188925 C7.69868155,18.4130245 7.38510874,18.7314019 6.99874951,18.7314019" id="Fill-24" fill="#00D4EE"></path>
                            <path d="M6.99874951,18.7314019 L4.19922524,18.7314019 C3.8130699,18.7314019 3.4992932,18.4130245 3.4992932,18.0188925 C3.4992932,17.6249679 3.8130699,17.3065906 4.19922524,17.3065906 L6.99874951,17.3065906 C7.38510874,17.3065906 7.69868155,17.6249679 7.69868155,18.0188925 C7.69868155,18.4130245 7.38510874,18.7314019 6.99874951,18.7314019" id="Fill-26" fill="#00D4EE"></path>
                            <path d="M9.79827379,15.8816962 L6.99874951,15.8816962 C6.61259417,15.8816962 6.29881748,15.5631113 6.29881748,15.1691868 C6.29881748,14.7752623 6.61259417,14.4566774 6.99874951,14.4566774 L9.79827379,14.4566774 C10.184633,14.4566774 10.4982058,14.7752623 10.4982058,15.1691868 C10.4982058,15.5631113 10.184633,15.8816962 9.79827379,15.8816962" id="Fill-28" fill="#00D4EE"></path>
                            <path d="M25.8955078,23.0061887 L16.0972748,23.0061887 C14.9396243,23.0061887 13.9976825,22.0473208 13.9976825,20.8688679 L13.9976825,10.894566 C13.9976825,9.71611321 14.9396243,8.75703774 16.0972748,8.75703774 L25.8955078,8.75703774 C27.0531583,8.75703774 27.9951,9.71611321 27.9951,10.894566 L27.9951,20.8688679 C27.9951,22.0473208 27.0531583,23.0061887 25.8955078,23.0061887 L25.8955078,23.0061887 Z M16.0972748,10.1820566 C15.7115272,10.1820566 15.3973427,10.5010566 15.3973427,10.894566 L15.3973427,20.8688679 C15.3973427,21.2621698 15.7115272,21.5813774 16.0972748,21.5813774 L25.8955078,21.5813774 C26.2812553,21.5813774 26.5954398,21.2621698 26.5954398,20.8688679 L26.5954398,10.894566 C26.5954398,10.5010566 26.2812553,10.1820566 25.8955078,10.1820566 L16.0972748,10.1820566 Z" id="Fill-30" fill="#663366"></path>
                        </g>
                    </g>
                    <circle id="Oval" stroke="url(#linearGradient-7)" stroke-width="2" cx="32" cy="32" r="32"></circle>
                </g>
            </g>
        </g>
    </g>
</svg>