<?xml version="1.0" encoding="utf-8"?>
<!-- Generator: Adobe Illustrator 23.0.3, SVG Export Plug-In . SVG Version: 6.00 Build 0)  -->
<svg version="1.1" id="Layer_1" xmlns="http://www.w3.org/2000/svg" xmlns:xlink="http://www.w3.org/1999/xlink" x="0px" y="0px"
	 viewBox="0 0 500 500" style="enable-background:new 0 0 500 500;" xml:space="preserve">
<style type="text/css">
	.st0{fill-rule:evenodd;clip-rule:evenodd;fill:#00D4EE;}
	.st1{fill-rule:evenodd;clip-rule:evenodd;fill:#FFFFFF;}
	.st2{clip-path:url(#SVGID_2_);}
	.st3{fill-rule:evenodd;clip-rule:evenodd;fill:#F2F2F2;}
	.st4{fill-rule:evenodd;clip-rule:evenodd;fill:#667080;}
	.st5{fill-rule:evenodd;clip-rule:evenodd;fill:#1D3BAD;}
	.st6{fill-rule:evenodd;clip-rule:evenodd;fill:#00E5A8;}
	.st7{fill-rule:evenodd;clip-rule:evenodd;fill:#E5E32D;}
	.st8{fill-rule:evenodd;clip-rule:evenodd;fill:#6665DD;}
	.st9{fill-rule:evenodd;clip-rule:evenodd;fill:#DA2431;}
	.st10{fill:none;stroke:#FFFFFF;stroke-width:0.7127;}
</style>
<title>Group 15</title>
<desc>Created with Sketch.</desc>
<g id="Page-1">
	<g id="Gea_LP_Homepage" transform="translate(-361.000000, -2280.000000)">
		<g id="CONTENT-PROCESOS" transform="translate(0.000000, 1787.000000)">
			<g id="Group-16" transform="translate(361.000000, 255.000000)">
				<g id="Group-15" transform="translate(0.000000, 238.000000)">
					<circle id="Oval-Copy" class="st0" cx="245.8" cy="250" r="178.2"/>
					<g id="Group-78" transform="translate(39.000000, 39.000000)">
						<g id="Mask">
							<circle class="st1" cx="206.8" cy="211" r="150.4"/>
							<g>
								<defs>
									<circle id="SVGID_1_" cx="206.8" cy="211" r="150.4"/>
								</defs>
								<clipPath id="SVGID_2_">
									<use xlink:href="#SVGID_1_"  style="overflow:visible;"/>
								</clipPath>
								<g class="st2">
									<g transform="translate(-68.000000, -32.000000)">
										<g id="Group-3">
											<g id="Clip-2">
											</g>
											<path id="Fill-1" class="st3" d="M362.4,368.4H83.9c-4.3,0-7.9-3.6-7.9-7.9V77.7c0-4.3,3.6-7.9,7.9-7.9h278.5
												c4.3,0,7.9,3.6,7.9,7.9v282.8C370.3,364.9,366.8,368.4,362.4,368.4"/>
										</g>
										<path id="Fill-4" class="st4" d="M347.6,357.7H105.2c-3.9,0-7.1-3.2-7.1-7.1V88.3c0-3.9,3.2-7.1,7.1-7.1h242.4
											c3.9,0,7.1,3.2,7.1,7.1v262.4C354.7,354.6,351.5,357.7,347.6,357.7"/>
										<path id="Fill-6" class="st5" d="M321.2,318.5H124.5c-3.9,0-7.1-3.2-7.1-7.1V101.9c0-3.9,3.2-7.1,7.1-7.1h196.7
											c3.9,0,7.1,3.2,7.1,7.1v209.5C328.3,315.3,325.1,318.5,321.2,318.5"/>
										<polygon id="Fill-8" class="st1" points="203.6,146.1 221.4,146.1 221.4,197.4 216.2,197.4 216.2,150.6 203.6,150.6 
																					"/>
										<path id="Fill-10" class="st1" d="M261.5,171.8c3.2,2.4,4.8,5.6,4.8,9.7c0,3.1-0.8,5.9-2.4,8.3c-1.6,2.4-3.9,4.3-6.8,5.6
											c-3,1.3-6.4,2-10.4,2c-3.1,0-6.2-0.4-9.3-1.3c-3.1-0.9-5.8-2.1-8.1-3.6l2.3-3.9c2.1,1.4,4.4,2.5,7,3.4
											c2.6,0.8,5.2,1.2,7.9,1.2c4.6,0,8.3-1,11-3.1c2.7-2.1,4-4.8,4-8.2s-1.3-6-4-7.8c-2.7-1.8-6.4-2.7-11.2-2.7h-6.6v-3.3
											l17.4-17.5h-25.4v-4.5h32v3.4l-18.3,18.4l3.2,0.1C254,168.1,258.3,169.4,261.5,171.8"/>
										<path id="Fill-12" class="st1" d="M287.1,170.8c-2.1,1.2-3.7,2.7-4.9,4.6c-1.1,1.9-1.7,3.9-1.7,6.1c0,1.9,0.5,3.7,1.5,5.6
											c1,1.9,2.5,3.4,4.5,4.7s4.5,1.9,7.5,1.9c3.9,0,7.1-1.1,9.5-3.4c2.4-2.3,3.6-5.4,3.6-9.2c0-3.7-1.1-6.6-3.4-8.7
											c-2.3-2.1-5.3-3.2-9.2-3.2C291.7,169.1,289.2,169.7,287.1,170.8 M302,151.2c-2.2-0.6-4.3-0.8-6.3-0.8
											c-5.3,0-9.4,1.9-12.3,5.8c-2.9,3.9-4.4,9.2-4.4,16c0,0.7,0,1.8,0.1,3.4c1.1-3.4,3.1-6,5.9-7.8s6.2-2.8,10.2-2.8
											c5.1,0,9.2,1.4,12.1,4.3c3,2.9,4.5,6.8,4.5,11.8c0,5.2-1.6,9.3-4.8,12.4c-3.2,3-7.4,4.6-12.8,4.6
											c-6.3,0-11.3-2.2-14.9-6.5s-5.3-10.5-5.3-18.4c0-5.4,0.9-10.2,2.6-14.3s4.2-7.3,7.4-9.5c3.2-2.2,7-3.3,11.3-3.3
											c2.4,0,4.8,0.3,7.5,1c2.6,0.6,5,1.5,7.2,2.6l-2.1,3.8C306.1,152.5,304.2,151.8,302,151.2"/>
										<polygon id="Fill-14" class="st1" points="232.1,214.5 268.4,214.5 268.4,216.3 243.2,265.8 241.6,265.8 267.1,216 
											233.5,216 233.5,224.2 232.1,224.2 										"/>
										<path id="Fill-16" class="st1" d="M281.7,218.8c-2.5,1.9-3.8,4.6-3.8,7.9c0,3.4,1.3,6.1,3.8,8s5.9,2.9,10.2,2.9
											c4.3,0,7.7-1,10.2-2.9s3.7-4.6,3.7-8s-1.2-6-3.7-7.9s-5.9-2.9-10.2-2.9C287.6,216,284.2,216.9,281.7,218.8 M280,242.4
											c-2.9,2.2-4.4,5.1-4.4,8.9c0,4.1,1.5,7.3,4.4,9.6c2.9,2.3,6.9,3.5,12,3.5s9-1.1,12-3.4c2.9-2.3,4.4-5.5,4.4-9.6
											c0-3.7-1.5-6.7-4.4-8.9s-6.9-3.3-12-3.3S282.9,240.2,280,242.4 M303.3,217.7c2.7,2.1,4.1,5.1,4.1,8.9
											c0,2.9-0.8,5.4-2.4,7.3c-1.6,1.9-4,3.4-7.1,4.3c3.8,0.9,6.7,2.4,8.8,4.7c2.1,2.3,3.1,5.1,3.1,8.5c0,4.5-1.6,8.1-4.7,10.6
											c-3.2,2.5-7.5,3.8-13,3.8c-5.6,0-10-1.3-13.1-3.8c-3.2-2.5-4.7-6.1-4.7-10.6c0-3.4,1-6.2,3.1-8.5s5-3.8,8.8-4.7
											c-3.1-0.9-5.5-2.4-7.1-4.3c-1.6-1.9-2.4-4.4-2.4-7.3c0-3.8,1.4-6.8,4.1-8.9c2.7-2.1,6.5-3.2,11.3-3.2
											C296.8,214.5,300.5,215.6,303.3,217.7"/>
										<path id="Fill-18" class="st1" d="M289.5,287.8c1.2,0.5,2.2,1.3,2.9,2.2c0.7,1,1,2.1,1,3.3c0,1.5-0.4,2.8-1.1,3.9
											s-1.7,2-3,2.6s-2.8,0.9-4.6,0.9c-1.4,0-2.9-0.2-4.4-0.7s-2.9-1.1-4-2l2.3-4.3c0.9,0.7,1.8,1.3,2.7,1.7
											c0.9,0.4,1.9,0.6,2.8,0.6s1.5-0.2,2-0.6s0.7-0.9,0.7-1.7c0-1.4-0.9-2.2-2.8-2.2c-2.2,0-4.1,0-5.8,0.1v-12.3h14.3v4.9h-8.6
											v2.7h1.4C286.8,287,288.2,287.2,289.5,287.8"/>
										<path id="Fill-20" class="st1" d="M301.1,291.7c-0.5,0.5-0.7,1.1-0.7,1.8c0,0.8,0.2,1.4,0.7,1.8c0.4,0.5,1.1,0.7,1.9,0.7
											s1.5-0.2,1.9-0.7c0.4-0.4,0.7-1.1,0.7-1.9s-0.2-1.4-0.7-1.8c-0.4-0.4-1.1-0.7-1.9-0.7C302.2,291,301.6,291.2,301.1,291.7
											 M304.3,283.9c-1.5,0-2.6,0.4-3.3,1.2c-0.8,0.8-1.1,2-1.1,3.5c0.5-0.6,1.1-1.1,1.9-1.5c0.8-0.3,1.7-0.5,2.7-0.5
											c1.4,0,2.5,0.3,3.5,0.8c1,0.6,1.8,1.4,2.3,2.4c0.6,1,0.8,2.2,0.8,3.6c0,1.5-0.3,2.7-1,3.8c-0.7,1.1-1.6,1.9-2.8,2.5
											c-1.2,0.6-2.6,0.9-4.2,0.9c-1.9,0-3.5-0.4-4.9-1.3c-1.4-0.8-2.4-2-3.2-3.6c-0.7-1.6-1.1-3.4-1.1-5.5
											c0-2.2,0.4-4.1,1.2-5.8c0.8-1.7,2-2.9,3.4-3.8c1.5-0.9,3.2-1.4,5.2-1.4c1.2,0,2.5,0.2,3.7,0.5c1.3,0.3,2.3,0.8,3.2,1.3
											l-2.3,4.1C307.3,284.4,305.9,283.9,304.3,283.9"/>
										<path id="Fill-22" class="st1" d="M284.2,117.9c0.9,0.6,1.3,1.5,1.3,2.6c0,0.8-0.2,1.5-0.6,2.2c-0.4,0.6-1,1.1-1.8,1.5
											s-1.7,0.5-2.8,0.5c-0.8,0-1.7-0.1-2.5-0.4c-0.8-0.2-1.6-0.6-2.2-1l0.6-1c0.6,0.4,1.2,0.7,1.9,0.9c0.7,0.2,1.4,0.3,2.1,0.3
											c1.2,0,2.2-0.3,3-0.8c0.7-0.5,1.1-1.3,1.1-2.2c0-0.9-0.4-1.6-1.1-2c-0.7-0.5-1.7-0.7-3-0.7h-1.8V117l4.7-4.6h-6.8v-1.2
											h8.6v0.9l-4.9,4.8h0.9C282.2,117,283.4,117.3,284.2,117.9"/>
										<path id="Fill-24" class="st1" d="M288.8,123.1c0.2,0.2,0.3,0.4,0.3,0.6c0,0.3-0.1,0.5-0.3,0.7c-0.2,0.2-0.5,0.3-0.8,0.3
											s-0.6-0.1-0.8-0.3c-0.2-0.2-0.3-0.4-0.3-0.7c0-0.3,0.1-0.5,0.3-0.6c0.2-0.2,0.5-0.3,0.8-0.3
											C288.3,122.9,288.6,122.9,288.8,123.1 M288.8,117.1c0.2,0.2,0.3,0.4,0.3,0.6c0,0.3-0.1,0.5-0.3,0.7
											c-0.2,0.2-0.5,0.3-0.8,0.3s-0.6-0.1-0.8-0.3c-0.2-0.2-0.3-0.4-0.3-0.7c0-0.3,0.1-0.5,0.3-0.6c0.2-0.2,0.5-0.3,0.8-0.3
											C288.3,116.9,288.6,116.9,288.8,117.1"/>
										<polygon id="Fill-26" class="st1" points="299.8,119.8 299.8,121 297.5,121 297.5,124.7 296.2,124.7 296.2,121 289.1,121 
											289.1,119.9 294.4,111.2 295.8,111.2 290.6,119.8 296.2,119.8 296.2,116 297.5,116 297.5,119.8 										"/>
										<path id="Fill-28" class="st1" d="M303.9,112.8c-0.6,0.4-0.8,1-0.8,1.8s0.3,1.3,0.8,1.8c0.6,0.4,1.3,0.7,2.3,0.7
											s1.8-0.2,2.3-0.7c0.6-0.4,0.8-1,0.8-1.8s-0.3-1.3-0.8-1.8c-0.6-0.4-1.3-0.6-2.3-0.6C305.2,112.2,304.4,112.4,303.9,112.8
											 M303.5,118.8c-0.7,0.5-1,1.1-1,2s0.3,1.6,1,2.1s1.6,0.8,2.7,0.8c1.2,0,2.1-0.3,2.7-0.8c0.7-0.5,1-1.2,1-2.1
											c0-0.8-0.3-1.5-1-2s-1.6-0.7-2.7-0.7C305,118.1,304.1,118.3,303.5,118.8 M309.4,112c0.8,0.6,1.2,1.4,1.2,2.5
											c0,0.7-0.2,1.3-0.6,1.8s-1,0.9-1.7,1.1c0.9,0.3,1.6,0.7,2.2,1.3c0.5,0.6,0.8,1.3,0.8,2.1c0,1.2-0.4,2.1-1.3,2.8
											c-0.9,0.7-2.1,1-3.6,1s-2.8-0.3-3.7-1c-0.9-0.7-1.3-1.6-1.3-2.8c0-0.9,0.3-1.6,0.8-2.2s1.3-1,2.2-1.3
											c-0.7-0.3-1.3-0.7-1.7-1.2c-0.4-0.5-0.6-1.1-0.6-1.8c0-1,0.4-1.8,1.2-2.4c0.8-0.6,1.8-0.9,3.2-0.9
											C307.5,111.2,308.6,111.5,309.4,112"/>
										<polygon id="Fill-30" class="st1" points="225.7,115.4 229.9,115.4 229.9,115.9 228.1,115.9 228.1,121.1 227.5,121.1 
											227.5,115.9 225.7,115.9 										"/>
										<g id="Clip-33">
										</g>
										<polygon id="Fill-32" class="st1" points="232.1,121.1 232.8,121.1 232.8,115.4 232.1,115.4 										"/>
										<polygon id="Fill-34" class="st1" points="237.1,115.4 240.5,115.4 240.5,115.9 237.6,115.9 237.6,118 240.2,118 
											240.2,118.5 237.6,118.5 237.6,120.6 240.6,120.6 240.6,121.1 237.1,121.1 										"/>
										<polygon id="Fill-35" class="st1" points="243.5,115.4 244.2,115.4 246.3,119.7 248.5,115.4 249.2,115.4 249.2,121.1 
											248.7,121.1 248.7,116.2 246.5,120.5 246.2,120.5 244,116.2 244,121.1 243.5,121.1 										"/>
										<path id="Fill-36" class="st1" d="M256,118.4c0.3-0.2,0.4-0.6,0.4-1.1s-0.1-0.8-0.4-1c-0.3-0.2-0.7-0.4-1.3-0.4h-1.5v2.8
											h1.5C255.3,118.8,255.8,118.7,256,118.4 M256.4,115.9c0.4,0.3,0.6,0.8,0.6,1.4s-0.2,1.1-0.6,1.5c-0.4,0.3-0.9,0.5-1.6,0.5
											h-1.5v1.8h-0.6v-5.7h2.1C255.5,115.4,256.1,115.6,256.4,115.9"/>
										<path id="Fill-37" class="st1" d="M260.9,116.2c-0.4,0.2-0.6,0.5-0.8,0.8c-0.2,0.4-0.3,0.8-0.3,1.2c0,0.4,0.1,0.8,0.3,1.2
											s0.5,0.7,0.8,0.9s0.7,0.3,1.2,0.3c0.4,0,0.8-0.1,1.1-0.3c0.4-0.2,0.6-0.5,0.8-0.9c0.2-0.4,0.3-0.8,0.3-1.2
											c0-0.4-0.1-0.8-0.3-1.2c-0.2-0.4-0.5-0.6-0.8-0.8c-0.4-0.2-0.7-0.3-1.1-0.3C261.6,115.9,261.2,116,260.9,116.2
											 M263.4,115.8c0.4,0.3,0.8,0.6,1,1s0.4,0.9,0.4,1.4s-0.1,1-0.4,1.4s-0.6,0.8-1,1c-0.4,0.3-0.9,0.4-1.4,0.4s-1-0.1-1.4-0.4
											s-0.8-0.6-1-1c-0.3-0.4-0.4-0.9-0.4-1.4s0.1-1,0.4-1.4s0.6-0.8,1-1c0.4-0.3,0.9-0.4,1.4-0.4S263,115.6,263.4,115.8"/>
										<polygon id="Fill-38" class="st0" points="133,143.2 143.7,143.2 143.7,132.5 133,132.5 										"/>
										<polygon id="Fill-39" class="st6" points="133,160.3 143.7,160.3 143.7,149.6 133,149.6 										"/>
										<polygon id="Fill-40" class="st7" points="133,177.4 143.7,177.4 143.7,166.7 133,166.7 										"/>
										<polygon id="Fill-41" class="st8" points="133,193.8 143.7,193.8 143.7,183.1 133,183.1 										"/>
										<path id="Fill-42" class="st9" d="M167.5,291.6v2.6h-2.9v-2.6v-2.4h2.9V291.6z M181.5,288.9v-2.4h-7.4v2.4h-2.4v-2.4h-7.4
											v2.4h-0.5h-1.6v7.2h1.6h0.5v2.6h2.4v2.2h2.4v2.6h2.4v2.2h2.9v-2.2h2.4v-2.6h0.2h2.2v-2.2h2.4v-2.6h0.5h1.6v-7.2H181.5z"/>
										<path id="Fill-43" class="st6" d="M129.4,300.9c-0.1,0-0.1-0.1-0.1-0.1v-10c0-0.1,0.1-0.1,0.1-0.1h18.1
											c0.1,0,0.1,0.1,0.1,0.1v10c0,0.1-0.1,0.1-0.1,0.1H129.4z M149,300.7v-1.8h1.2c0.8,0,1.4-0.6,1.4-1.4v-3.6
											c0-0.8-0.6-1.4-1.4-1.4H149v-1.8c0-0.8-0.6-1.4-1.4-1.4h-18.1c-0.8,0-1.4,0.6-1.4,1.4v10c0,0.8,0.6,1.4,1.4,1.4h18.1
											C148.3,302.2,149,301.5,149,300.7L149,300.7z"/>
										<polygon id="Fill-44" class="st7" points="130.2,291.5 130.2,300 141.8,300 144.4,291.5 										"/>
										<path id="Fill-45" class="st1" d="M336,172.4c-0.3-0.1-0.6-0.2-0.9-0.2c-0.2,0-0.3,0-0.4,0.1s-0.2,0.2-0.2,0.3
											s0,0.2,0.1,0.3s0.2,0.1,0.3,0.2c0.1,0,0.3,0.1,0.6,0.2c0.4,0.1,0.7,0.2,1,0.3s0.5,0.3,0.7,0.5s0.3,0.5,0.3,0.9
											s-0.1,0.7-0.3,0.9c-0.2,0.3-0.5,0.5-0.8,0.6c-0.4,0.1-0.7,0.2-1.2,0.2s-1-0.1-1.4-0.2c-0.5-0.2-0.9-0.4-1.2-0.7l0.6-1.1
											c0.3,0.2,0.6,0.4,1,0.6c0.4,0.2,0.8,0.2,1.1,0.2c0.2,0,0.4,0,0.5-0.1s0.2-0.2,0.2-0.3s0-0.2-0.1-0.3s-0.2-0.2-0.4-0.2
											c-0.1,0-0.4-0.1-0.6-0.2c-0.4-0.1-0.7-0.2-1-0.3s-0.5-0.3-0.7-0.5s-0.3-0.5-0.3-0.9c0-0.3,0.1-0.6,0.3-0.9
											c0.2-0.3,0.5-0.5,0.8-0.6s0.8-0.2,1.2-0.2c0.4,0,0.8,0.1,1.2,0.2c0.4,0.1,0.8,0.3,1.1,0.5l-0.6,1.1
											C336.7,172.6,336.3,172.5,336,172.4"/>
										<polygon id="Fill-46" class="st1" points="343.2,171 341.2,174.9 341.2,176.7 339.7,176.7 339.7,174.9 337.5,171 
											339.1,171 340.4,173.5 341.7,171 										"/>
										<path id="Fill-47" class="st1" d="M347.4,172.4c-0.3-0.1-0.6-0.2-0.9-0.2c-0.2,0-0.3,0-0.4,0.1s-0.2,0.2-0.2,0.3
											s0,0.2,0.1,0.3s0.2,0.1,0.3,0.2c0.1,0,0.3,0.1,0.6,0.2c0.4,0.1,0.7,0.2,1,0.3s0.5,0.3,0.7,0.5s0.3,0.5,0.3,0.9
											s-0.1,0.7-0.3,0.9c-0.2,0.3-0.5,0.5-0.8,0.6c-0.4,0.1-0.7,0.2-1.2,0.2s-1-0.1-1.4-0.2c-0.5-0.2-0.9-0.4-1.2-0.7l0.6-1.1
											c0.3,0.2,0.6,0.4,1,0.6c0.4,0.2,0.8,0.2,1.1,0.2c0.2,0,0.4,0,0.5-0.1s0.2-0.2,0.2-0.3s0-0.2-0.1-0.3s-0.2-0.2-0.4-0.2
											c-0.1,0-0.4-0.1-0.6-0.2c-0.4-0.1-0.7-0.2-1-0.3s-0.5-0.3-0.7-0.5s-0.3-0.5-0.3-0.9c0-0.3,0.1-0.6,0.3-0.9
											c0.2-0.3,0.5-0.5,0.8-0.6s0.8-0.2,1.2-0.2c0.4,0,0.8,0.1,1.2,0.2c0.4,0.1,0.8,0.3,1.1,0.5l-0.6,1.1
											C348.1,172.6,347.7,172.5,347.4,172.4"/>
										<path id="Fill-48" class="st1" d="M350.9,175.5c0.1,0.1,0.2,0.3,0.2,0.5s-0.1,0.4-0.2,0.5s-0.3,0.2-0.5,0.2
											s-0.4-0.1-0.5-0.2c-0.1-0.1-0.2-0.3-0.2-0.5s0.1-0.4,0.2-0.5s0.3-0.2,0.5-0.2S350.8,175.4,350.9,175.5"/>
										<path id="Fill-49" class="st1" d="M337.4,242.3c0.2-0.1,0.4-0.3,0.5-0.6c0.1-0.2,0.2-0.5,0.2-0.9c0-0.3-0.1-0.6-0.2-0.9
											c-0.1-0.2-0.3-0.4-0.6-0.6c-0.2-0.1-0.5-0.2-0.8-0.2h-1v3.3h1C336.9,242.5,337.1,242.4,337.4,242.3 M338.2,238.4
											c0.5,0.2,0.8,0.6,1.1,1c0.3,0.4,0.4,0.9,0.4,1.5s-0.1,1.1-0.4,1.5s-0.6,0.8-1.1,1s-1,0.4-1.7,0.4H334V238h2.6
											C337.2,238,337.7,238.1,338.2,238.4"/>
										<polygon id="Fill-50" class="st1" points="340.4,243.7 341.8,243.7 341.8,238 340.4,238 										"/>
										<path id="Fill-51" class="st1" d="M344.9,241.6h1.6l-0.8-2L344.9,241.6z M347.4,243.7l-0.4-1h-2.5l-0.4,1h-1.5l2.5-5.7
											h1.5l2.4,5.7H347.4z"/>
										<path id="Fill-52" class="st1" d="M350.2,242.5c0.1,0.1,0.2,0.3,0.2,0.5s-0.1,0.4-0.2,0.5s-0.3,0.2-0.5,0.2
											s-0.4-0.1-0.5-0.2c-0.1-0.1-0.2-0.3-0.2-0.5s0.1-0.4,0.2-0.5s0.3-0.2,0.5-0.2C349.9,242.3,350,242.4,350.2,242.5"/>
										<path id="Fill-53" class="st1" d="M336.5,280.6c0.2-0.2,0.3-0.4,0.3-0.7c0-0.3-0.1-0.5-0.3-0.6c-0.2-0.1-0.4-0.2-0.7-0.2
											h-1v1.7h1C336.1,280.9,336.4,280.8,336.5,280.6 M337.6,278.4c0.4,0.4,0.6,0.8,0.6,1.5s-0.2,1.2-0.6,1.6s-1,0.6-1.8,0.6
											h-1.1v1.6h-1.5V278h2.6C336.6,277.9,337.2,278.1,337.6,278.4"/>
										<path id="Fill-54" class="st1" d="M340.7,282.1c0.2,0.2,0.5,0.3,0.8,0.3s0.6-0.1,0.7-0.3c0.2-0.2,0.3-0.5,0.3-0.9v-3.3
											h1.4v3.3c0,0.5-0.1,0.9-0.3,1.3c-0.2,0.4-0.5,0.6-0.9,0.8c-0.4,0.2-0.8,0.3-1.3,0.3s-0.9-0.1-1.3-0.3
											c-0.4-0.2-0.7-0.5-0.9-0.8c-0.2-0.4-0.3-0.8-0.3-1.3v-3.3h1.4v3.3C340.4,281.6,340.5,281.8,340.7,282.1"/>
										<polygon id="Fill-55" class="st1" points="345.4,277.9 346.7,277.9 346.7,282.4 349,282.4 349,283.6 345.4,283.6 
																					"/>
										<path id="Fill-56" class="st1" d="M350.9,282.4c0.1,0.1,0.2,0.3,0.2,0.5s-0.1,0.4-0.2,0.5s-0.3,0.2-0.5,0.2
											s-0.4-0.1-0.5-0.2s-0.2-0.3-0.2-0.5s0.1-0.4,0.2-0.5s0.3-0.2,0.5-0.2C350.6,282.2,350.8,282.3,350.9,282.4"/>
										<polygon id="Fill-57" class="st1" points="334.3,287.2 335.4,287.2 333,292.9 331.8,292.9 										"/>
										<path id="Fill-58" class="st1" d="M340.8,288.3c0.2,0.2,0.3,0.6,0.3,1v2.2H340v-1.9c0-0.2,0-0.4-0.1-0.5s-0.2-0.2-0.4-0.2
											c-0.2,0-0.4,0.1-0.5,0.2s-0.2,0.3-0.2,0.6v1.7h-1.1v-1.9c0-0.2,0-0.4-0.1-0.5s-0.2-0.2-0.4-0.2c-0.2,0-0.4,0.1-0.5,0.2
											s-0.2,0.3-0.2,0.6v1.7h-1.1v-3.5h1.1v0.6c0.1-0.2,0.3-0.4,0.5-0.5s0.4-0.2,0.6-0.2c0.3,0,0.5,0.1,0.7,0.2s0.3,0.3,0.4,0.6
											c0.1-0.3,0.3-0.5,0.5-0.6s0.4-0.2,0.7-0.2C340.3,287.9,340.6,288,340.8,288.3"/>
										<path id="Fill-59" class="st1" d="M341.9,292.2h1.3v-3.4h-1.3V292.2z M343,287.4c0.1,0.1,0.2,0.3,0.2,0.4
											c0,0.2-0.1,0.3-0.2,0.4s-0.3,0.2-0.5,0.2s-0.4-0.1-0.5-0.2s-0.2-0.3-0.2-0.4c0-0.2,0.1-0.3,0.2-0.4s0.3-0.2,0.5-0.2
											S342.9,287.2,343,287.4L343,287.4z"/>
										<path id="Fill-60" class="st1" d="M347.2,288.3c0.2,0.2,0.3,0.6,0.3,1v2.2h-1.1v-1.9c0-0.2-0.1-0.4-0.2-0.5
											s-0.3-0.2-0.4-0.2c-0.2,0-0.3,0.1-0.5,0.2s-0.2,0.3-0.2,0.5v1.9H344V288h1.1v0.6c0.1-0.2,0.3-0.4,0.5-0.5s0.4-0.2,0.7-0.2
											C346.6,287.9,347,288,347.2,288.3"/>
										<path id="Fill-61" class="st1" d="M130.5,348c-4.3,0-7.8-3.6-7.8-8s3.5-8,7.8-8s7.8,3.6,7.8,8S134.8,348,130.5,348
											L130.5,348z M138.3,333.4l0.2,0.2c0.4,0.4,0.9,0.4,1.3,0c0.4-0.4,0.4-1,0-1.3l-1.7-1.7c-0.4-0.4-0.9-0.4-1.3,0
											c-0.4,0.4-0.4,1,0,1.3l0.2,0.2l-0.3,0.3c-1.4-1.2-3.2-2-5.2-2.2V329h1.7c0.5,0,0.9-0.4,0.9-0.9s-0.4-0.9-0.9-0.9H128
											c-0.5,0-0.9,0.4-0.9,0.9s0.4,0.9,0.9,0.9h1.7v1.2c-4.9,0.5-8.7,4.7-8.7,9.8c0,5.4,4.3,9.9,9.6,9.9s9.6-4.4,9.6-9.9
											c0-2.4-0.8-4.6-2.2-6.3L138.3,333.4z"/>
										<path id="Fill-62" class="st1" d="M131.1,341.5c-0.8,0-1.4-0.6-1.4-1.4s0.6-1.4,1.4-1.4c0.8,0,1.4,0.6,1.4,1.4
											S131.9,341.5,131.1,341.5 M131.1,336.8c-0.6,0-1.1,0.2-1.6,0.4l-2-2c-0.4-0.4-1-0.4-1.4,0s-0.4,1,0,1.4l2,2
											c-0.2,0.5-0.4,1-0.4,1.6c0,1.8,1.5,3.3,3.3,3.3s3.3-1.5,3.3-3.3C134.4,338.3,132.9,336.8,131.1,336.8"/>
										<path id="Stroke-63" class="st10" d="M278.1,349.2H163.3c-4.1,0-7.5-3.3-7.5-7.4V333c0-4.1,3.4-7.4,7.5-7.4h114.8
											c4.1,0,7.5,3.3,7.5,7.4v8.8C285.5,345.9,282.2,349.2,278.1,349.2z"/>
										<path id="Fill-64" class="st1" d="M178,335.4c-0.3,0.2-0.6,0.4-0.7,0.7c-0.2,0.3-0.3,0.6-0.3,1c0,0.3,0.1,0.7,0.3,1
											s0.4,0.5,0.7,0.7s0.7,0.3,1,0.3c0.4,0,0.7-0.1,1-0.3c0.3-0.2,0.6-0.4,0.7-0.7c0.2-0.3,0.3-0.6,0.3-1c0-0.3-0.1-0.7-0.3-1
											s-0.4-0.5-0.7-0.7s-0.6-0.2-1-0.2C178.6,335.2,178.3,335.3,178,335.4 M180.6,334.6c0.5,0.2,0.9,0.6,1.2,1s0.4,0.9,0.4,1.4
											s-0.1,1-0.4,1.4c-0.3,0.4-0.7,0.8-1.2,1c-0.5,0.3-1,0.4-1.6,0.4s-1.1-0.1-1.6-0.4s-0.9-0.6-1.2-1s-0.4-0.9-0.4-1.4
											s0.1-1,0.4-1.4c0.3-0.4,0.7-0.8,1.2-1s1-0.4,1.6-0.4S180.1,334.3,180.6,334.6"/>
										<polygon id="Fill-65" class="st1" points="189,334.2 190,334.2 190,339.9 189,339.9 186.1,336 186.1,339.9 185,339.9 
											185,334.2 186.1,334.2 189,338.2 										"/>
										<polygon id="Fill-66" class="st1" points="198.4,333.5 199.3,333.5 196.6,341.3 195.7,341.3 										"/>
										<path id="Fill-67" class="st1" d="M206.5,335.4c-0.3,0.2-0.6,0.4-0.7,0.7c-0.2,0.3-0.3,0.6-0.3,1c0,0.3,0.1,0.7,0.3,1
											s0.4,0.5,0.7,0.7s0.7,0.3,1,0.3c0.4,0,0.7-0.1,1-0.3c0.3-0.2,0.6-0.4,0.7-0.7c0.2-0.3,0.3-0.6,0.3-1c0-0.3-0.1-0.7-0.3-1
											s-0.4-0.5-0.7-0.7s-0.6-0.2-1-0.2C207.1,335.2,206.8,335.3,206.5,335.4 M209.1,334.6c0.5,0.2,0.9,0.6,1.2,1
											s0.4,0.9,0.4,1.4s-0.1,1-0.4,1.4c-0.3,0.4-0.7,0.8-1.2,1c-0.5,0.3-1,0.4-1.6,0.4s-1.1-0.1-1.6-0.4s-0.9-0.6-1.2-1
											s-0.4-0.9-0.4-1.4s0.1-1,0.4-1.4c0.3-0.4,0.7-0.8,1.2-1s1-0.4,1.6-0.4S208.6,334.3,209.1,334.6"/>
										<polygon id="Fill-68" class="st1" points="213.5,334.2 217.1,334.2 217.1,335.2 214.5,335.2 214.5,336.7 216.9,336.7 
											216.9,337.7 214.5,337.7 214.5,339.9 213.5,339.9 										"/>
										<polygon id="Fill-69" class="st1" points="220.7,334.2 224.2,334.2 224.2,335.2 221.7,335.2 221.7,336.7 224,336.7 
											224,337.7 221.7,337.7 221.7,339.9 220.7,339.9 										"/>
										<polygon id="Fill-70" class="st1" points="231.9,333.5 232.8,333.5 230.1,341.3 229.2,341.3 										"/>
										<path id="Fill-71" class="st1" d="M240.8,335.3c-0.3-0.1-0.5-0.1-0.8-0.1c-0.2,0-0.4,0-0.6,0.1c-0.1,0.1-0.2,0.2-0.2,0.4
											c0,0.2,0,0.3,0.1,0.4s0.2,0.2,0.4,0.3c0.1,0.1,0.4,0.1,0.6,0.2c0.4,0.1,0.7,0.2,0.9,0.3c0.2,0.1,0.4,0.3,0.6,0.5
											c0.2,0.2,0.2,0.5,0.2,0.9c0,0.3-0.1,0.6-0.3,0.9s-0.4,0.4-0.7,0.6c-0.3,0.1-0.7,0.2-1.1,0.2c-0.4,0-0.8-0.1-1.2-0.2
											c-0.4-0.2-0.7-0.4-1-0.6l0.4-0.9c0.3,0.3,0.6,0.5,0.9,0.6c0.3,0.1,0.6,0.2,0.9,0.2c0.3,0,0.5-0.1,0.7-0.2s0.2-0.3,0.2-0.5
											s0-0.3-0.1-0.4s-0.2-0.2-0.4-0.3c-0.2-0.1-0.4-0.1-0.6-0.2c-0.4-0.1-0.7-0.2-0.9-0.3c-0.2-0.1-0.4-0.3-0.6-0.5
											c-0.2-0.2-0.2-0.5-0.2-0.8s0.1-0.6,0.2-0.8c0.2-0.2,0.4-0.4,0.7-0.6c0.3-0.1,0.6-0.2,1-0.2c0.3,0,0.7,0.1,1,0.2
											s0.6,0.2,0.9,0.4l-0.4,0.9C241.3,335.6,241,335.4,240.8,335.3"/>
										<polygon id="Fill-72" class="st1" points="244.9,334.2 249.2,334.2 249.2,335.2 247.5,335.2 247.5,339.9 246.5,339.9 
											246.5,335.2 244.9,335.2 										"/>
										<path id="Fill-73" class="st1" d="M252.7,337.8h2.1l-1-2.4L252.7,337.8z M255.8,339.9l-0.5-1.2h-2.9l-0.5,1.2h-1.2
											l2.6-5.7h1.2l2.6,5.7H255.8z"/>
										<path id="Fill-74" class="st1" d="M260.3,337.3h1.3c0.4,0,0.8-0.1,1-0.3c0.2-0.2,0.3-0.4,0.3-0.8c0-0.3-0.1-0.6-0.3-0.8
											c-0.2-0.2-0.6-0.3-1-0.3h-1.3V337.3z M262.9,339.9l-1-1.7c0,0-0.1,0-0.2,0h-1.3v1.7h-1.1v-5.7h2.5c0.8,0,1.4,0.2,1.8,0.5
											s0.6,0.8,0.6,1.4c0,0.4-0.1,0.8-0.3,1.1c-0.2,0.3-0.5,0.6-0.9,0.7l1.3,1.9h-1.4V339.9z"/>
										<polygon id="Fill-75" class="st1" points="267,334.2 271.3,334.2 271.3,335.2 269.6,335.2 269.6,339.9 268.6,339.9 
											268.6,335.2 267,335.2 										"/>
										<path id="Fill-76" class="st1" d="M308.7,348.6c-6.1,0-11.1-5-11.1-11.1s5-11.1,11.1-11.1s11.1,5,11.1,11.1
											C319.8,343.6,314.8,348.6,308.7,348.6 M308.7,325c-6.9,0-12.5,5.6-12.5,12.5s5.6,12.5,12.5,12.5s12.5-5.6,12.5-12.5
											C321.2,330.5,315.6,325,308.7,325"/>
										<polygon id="Fill-77" class="st1" points="303.3,333.5 305.8,333.5 308.3,338.5 310.8,333.5 313.3,333.5 313.3,342.1 
											311.3,342.1 311.3,336.6 309.1,341.2 307.6,341.2 305.4,336.6 305.4,342.1 303.3,342.1 										"/>
									</g>
								</g>
							</g>
						</g>
					</g>
				</g>
			</g>
		</g>
	</g>
</g>
</svg>
