<?xml version="1.0" encoding="UTF-8"?>
<svg width="48px" height="48px" viewBox="0 0 48 48" version="1.1" xmlns="http://www.w3.org/2000/svg" xmlns:xlink="http://www.w3.org/1999/xlink">
    <!-- Generator: Sketch 54.1 (76490) - https://sketchapp.com -->
    <title>ic-in</title>
    <desc>Created with Sketch.</desc>
    <g id="Page-1" stroke="none" stroke-width="1" fill="none" fill-rule="evenodd">
        <g id="Gea_LP_Homepage" transform="translate(-1457.000000, -4176.000000)">
            <g id="FOOTER" transform="translate(0.000000, 4022.000000)">
                <g id="Group-14" transform="translate(1257.000000, 154.000000)">
                    <g id="Group-13" transform="translate(146.000000, 0.000000)">
                        <g id="ic-in" transform="translate(54.000000, 0.000000)">
                            <g>
                                <circle id="Oval-Copy-5" fill="#FFFFFF" cx="24" cy="24" r="24"></circle>
                                <path d="M24,14.163 C27.204,14.163 27.584,14.175 28.85,14.233 C32.102,14.381 33.621,15.924 33.769,19.152 C33.827,20.417 33.838,20.797 33.838,24.001 C33.838,27.206 33.826,27.585 33.769,28.85 C33.62,32.075 32.105,33.621 28.85,33.769 C27.584,33.827 27.206,33.839 24,33.839 C20.796,33.839 20.416,33.827 19.151,33.769 C15.891,33.62 14.38,32.07 14.232,28.849 C14.174,27.584 14.162,27.205 14.162,24 C14.162,20.796 14.175,20.417 14.232,19.151 C14.381,15.924 15.896,14.38 19.151,14.232 C20.417,14.175 20.796,14.163 24,14.163 L24,14.163 Z M24,12 C20.741,12 20.333,12.014 19.053,12.072 C14.695,12.272 12.273,14.69 12.073,19.052 C12.014,20.333 12,20.741 12,24 C12,27.259 12.014,27.668 12.072,28.948 C12.272,33.306 14.69,35.728 19.052,35.928 C20.333,35.986 20.741,36 24,36 C27.259,36 27.668,35.986 28.948,35.928 C33.302,35.728 35.73,33.31 35.927,28.948 C35.986,27.668 36,27.259 36,24 C36,20.741 35.986,20.333 35.928,19.053 C35.732,14.699 33.311,12.273 28.949,12.073 C27.668,12.014 27.259,12 24,12 Z M24,17.838 C20.597,17.838 17.838,20.597 17.838,24 C17.838,27.403 20.597,30.163 24,30.163 C27.403,30.163 30.162,27.404 30.162,24 C30.162,20.597 27.403,17.838 24,17.838 Z M24,28 C21.791,28 20,26.21 20,24 C20,21.791 21.791,20 24,20 C26.209,20 28,21.791 28,24 C28,26.21 26.209,28 24,28 Z M30.406,16.155 C29.61,16.155 28.965,16.8 28.965,17.595 C28.965,18.39 29.61,19.035 30.406,19.035 C31.201,19.035 31.845,18.39 31.845,17.595 C31.845,16.8 31.201,16.155 30.406,16.155 Z" id="Shape" fill="#6665DD" fill-rule="nonzero"></path>
                                <g id="iconmonstr-instagram-11" transform="translate(12.000000, 12.000000)"></g>
                            </g>
                        </g>
                    </g>
                </g>
            </g>
        </g>
    </g>
</svg>