<?xml version="1.0" encoding="UTF-8"?>
<svg width="48px" height="48px" viewBox="0 0 48 48" version="1.1" xmlns="http://www.w3.org/2000/svg" xmlns:xlink="http://www.w3.org/1999/xlink">
    <!-- Generator: Sketch 54.1 (76490) - https://sketchapp.com -->
    <title>ic-ln</title>
    <desc>Created with Sketch.</desc>
    <g id="Page-1" stroke="none" stroke-width="1" fill="none" fill-rule="evenodd">
        <g id="Gea_LP_Homepage" transform="translate(-1511.000000, -4176.000000)">
            <g id="FOOTER" transform="translate(0.000000, 4022.000000)">
                <g id="Group-14" transform="translate(1257.000000, 154.000000)">
                    <g id="Group-13" transform="translate(146.000000, 0.000000)">
                        <g id="ic-ln" transform="translate(108.000000, 0.000000)">
                            <g>
                                <circle id="Oval-Copy-5" fill="#FFFFFF" cx="24" cy="24" r="24"></circle>
                                <path d="M19.98,12.5 C19.98,13.881 18.87,15 17.5,15 C16.13,15 15.02,13.881 15.02,12.5 C15.02,11.12 16.13,10 17.5,10 C18.87,10 19.98,11.12 19.98,12.5 Z M20,17 L15,17 L15,33 L20,33 L20,17 Z M27.982,17 L23.014,17 L23.014,33 L27.983,33 L27.983,24.601 C27.983,19.931 34.012,19.549 34.012,24.601 L34.012,33 L39,33 L39,22.869 C39,14.989 30.078,15.276 27.982,19.155 L27.982,17 Z" id="Shape" fill="#6665DD" fill-rule="nonzero"></path>
                            </g>
                        </g>
                    </g>
                </g>
            </g>
        </g>
    </g>
</svg>