<?xml version="1.0" encoding="utf-8"?>
<!-- Generator: Adobe Illustrator 23.0.3, SVG Export Plug-In . SVG Version: 6.00 Build 0)  -->
<svg version="1.1" id="Layer_1" xmlns="http://www.w3.org/2000/svg" xmlns:xlink="http://www.w3.org/1999/xlink" x="0px" y="0px"
	 viewBox="0 0 500 500" style="enable-background:new 0 0 500 500;" xml:space="preserve">
<style type="text/css">
	.st0{fill-rule:evenodd;clip-rule:evenodd;fill:#00D4EE;}
	.st1{fill-rule:evenodd;clip-rule:evenodd;fill:#FFFFFF;}
	.st2{clip-path:url(#SVGID_2_);}
	.st3{fill:#EDEDED;}
	.st4{opacity:5.000000e-02;fill:#1D1D1B;enable-background:new    ;}
	.st5{fill:#C6C6C6;}
	.st6{fill:#3C3C3B;}
	.st7{fill:#8FDAFF;}
	.st8{fill:#34B1ED;}
	.st9{fill:#FFFFFF;}
</style>
<title>Group 15</title>
<desc>Created with Sketch.</desc>
<g id="Page-1">
	<g id="Gea_LP_Homepage" transform="translate(-361.000000, -2280.000000)">
		<g id="CONTENT-PROCESOS" transform="translate(0.000000, 1787.000000)">
			<g id="Group-16" transform="translate(361.000000, 255.000000)">
				<g id="Group-15" transform="translate(0.000000, 238.000000)">
					<circle id="Oval-Copy" class="st0" cx="245.8" cy="250" r="178.2"/>
					<g id="Group-78" transform="translate(39.000000, 39.000000)">
						<g id="Mask">
							<circle class="st1" cx="206.8" cy="211" r="150.4"/>
							<g>
								<g>
									<defs>
										<circle id="SVGID_1_" cx="206.8" cy="211" r="150.4"/>
									</defs>
									<clipPath id="SVGID_2_">
										<use xlink:href="#SVGID_1_"  style="overflow:visible;"/>
									</clipPath>
									<g class="st2">
										<g>
											<path class="st3" d="M366.8,70.7V193c0,44.6-36.1,80.8-80.8,80.8H170.9V159H253c8.6,0,15.6-7,15.6-15.6V70.7H366.8z"/>
											<path class="st4" d="M366.8,70.7V193c0,44.6-36.1,80.8-80.8,80.8h-94v-29.4h80.5c34.7,0,62.8-28.1,62.8-62.8V70.7H366.8z
												"/>
											<path class="st5" d="M195.7,143.7h-24.8v7.1c-19.6,11.7-33.3,36.7-33.3,65.7s13.6,54,33.3,65.7v7.1h24.8
												c32,0,58.1-32.6,58.1-72.7C253.8,176.4,227.7,143.7,195.7,143.7z"/>
											<ellipse class="st6" cx="170.9" cy="216.5" rx="50.4" ry="65.1"/>
											<path class="st3" d="M170.9,289.2c-32,0-58.1-32.6-58.1-72.7s26.1-72.7,58.1-72.7s58.1,32.6,58.1,72.7
												S203,289.2,170.9,289.2z M170.9,159c-23.6,0-42.8,25.8-42.8,57.5s19.2,57.5,42.8,57.5s42.8-25.8,42.8-57.5
												C213.8,184.8,194.5,159,170.9,159z"/>
											<g>
												<path class="st7" d="M213.7,213.5v8.2h-0.1c-0.3,4.2-0.9,8.2-1.8,12c-0.6,2.4-1.2,4.7-2,6.9c-1.5,4.3-3.4,8.4-5.6,12
													c-1.5,2.5-3.2,4.8-5,7c-4.9,5.7-10.7,10-17.1,12.3c-0.1,0-0.1,0-0.1,0c-0.8,0.2-1.6,0.5-2.4,0.8c0,0,0,0-0.1,0
													c-0.4,0.1-0.7,0.3-1,0.5c-2.2,1.3-4.4,3.4-5.4,5.9c-0.5,1.2-0.9,2.5-1,3.9c0.1,0.4,0,0.7-0.1,1.1v37.7c0,15.6,0,26,0,26
													h-68.9c0,0,0-10.4,0-26v-38.1c0.1-2.2,0.2-4.4,0.3-6.6c0.8-8.8,3.1-17.7,6.7-26c0.3-0.6,0.6-1.2,0.9-1.8
													s0.6-1.2,0.9-1.8c0.6-1.3,1.3-2.5,2-3.8c0.6-1,1.2-2,1.8-3.1c1.5-2.4,3.1-4.7,4.8-6.8c0.8-1.1,1.7-2.1,2.6-3.1
													c0.8-1,1.7-2,2.7-2.9c0.9-1,1.8-1.9,2.8-2.8c2.4-2.3,4.9-4.4,7.6-6.4c1.7-1.3,3.5-2.5,5.3-3.6c1.3-0.8,2.5-1.6,3.8-2.3
													c7.5-4.1,15.3-6.8,22.9-8.4c3.8-0.6,7.6-1.3,11.2-1.4c1.8-0.1,3.5-0.2,5.2-0.2h27.9
													C213.1,206.2,213.5,209.8,213.7,213.5z"/>
												<path class="st7" d="M213.7,213.5v8.2h-0.1c-0.3,4.2-0.9,8.2-1.8,12c-0.6,2.4-1.2,4.7-2,6.9c-1.5,4.3-3.4,8.4-5.6,12
													c-1.5,2.5-3.2,4.8-5,7c-4.9,5.7-10.7,10-17.1,12.3c-0.1,0-0.1,0-0.1,0c-0.8,0.2-1.6,0.5-2.4,0.8c0,0,0,0-0.1,0
													c-0.4,0.1-0.7,0.3-1,0.5c-2.2,1.3-4.4,3.4-5.4,5.9c-0.5,1.2-0.9,2.5-1,3.9c0.1,0.4,0,0.7-0.1,1.1v37.7c0,15.6,0,26,0,26
													h-68.9c0,0,0-10.4,0-26v-38.1c0.1-2.2,0.2-4.4,0.3-6.6c0.8-8.8,3.1-17.7,6.7-26c0.3-0.6,0.6-1.2,0.9-1.8
													s0.6-1.2,0.9-1.8c0.6-1.3,1.3-2.5,2-3.8c0.6-1,1.2-2,1.8-3.1c1.5-2.4,3.1-4.7,4.8-6.8c0.8-1.1,1.7-2.1,2.6-3.1
													c0.8-1,1.7-2,2.7-2.9c0.9-1,1.8-1.9,2.8-2.8c2.4-2.3,4.9-4.4,7.6-6.4c1.7-1.3,3.5-2.5,5.3-3.6c1.3-0.8,2.5-1.6,3.8-2.3
													c7.5-4.1,15.3-6.8,22.9-8.4c3.8-0.6,7.6-1.3,11.2-1.4c1.8-0.1,3.5-0.2,5.2-0.2h27.9
													C213.1,206.2,213.5,209.8,213.7,213.5z"/>
												<g>
													<path class="st8" d="M213.7,213.5v1.3c0,0-10.4,0-26,0h-3c-1.5,0.1-2.9,0.2-4.5,0.2c-3.1,0.1-6.3,0.7-9.5,1.2
														c-6.5,1.4-13.2,3.7-19.5,7.1c-7.2,4-13.9,9.4-19.5,16c-4.3,4.9-7.9,10.6-10.5,16.7c-3.1,7-5,14.6-5.7,22.2
														c-0.1,1.9-0.2,3.8-0.3,5.6v38c0,15.6,0,26,0,26h-12c0,0,0-10.4,0-26v-38.1c0.1-2.2,0.2-4.4,0.3-6.6
														c0.8-8.8,3.1-17.7,6.7-26c0.3-0.6,0.6-1.2,0.9-1.8s0.6-1.2,0.9-1.8c0.6-1.3,1.3-2.5,2-3.8c0.6-1,1.2-2,1.8-3.1
														c1.5-2.4,3.1-4.7,4.8-6.8c0.8-1.1,1.7-2.1,2.6-3.1c0.8-1,1.7-2,2.7-2.9c0.9-1,1.8-1.9,2.8-2.8c2.4-2.3,4.9-4.4,7.6-6.4
														c1.7-1.3,3.5-2.5,5.3-3.6c1.3-0.8,2.5-1.6,3.8-2.3c7.5-4.1,15.3-6.8,22.9-8.4c3.8-0.6,7.6-1.3,11.2-1.4
														c1.8-0.1,3.5-0.2,5.2-0.2h27.9C213.1,206.2,213.5,209.8,213.7,213.5z"/>
													<path class="st8" d="M213.6,221.7c-0.3,4.2-0.9,8.2-1.8,12h-24.1c-3.8-0.1-8.6,0.1-13.2,1c-4.7,1.1-9.6,2.7-14.2,5.2
														c-7.4,4.1-14.2,10.4-18.9,18.1v0.1c-1.1,1.8-2.1,3.7-2.9,5.6c-2.2,5.1-3.6,10.6-4.1,16.1c-0.4,5.7-0.2,10.4-0.3,15.4
														v26.7c0,15.6,0,26,0,26h-12c0,0,0-10.4,0-26v-38l0.3-5.1c0.6-6.8,2.3-13.6,5.1-19.9c1.9-4.3,4.3-8.3,7.1-12
														c5.4-7.3,12.4-13.2,19.9-17.3c5.7-3.1,11.7-5.2,17.5-6.4c2.9-0.5,5.8-1,8.6-1.1c1.4-0.1,2.7-0.2,4-0.2h29V221.7z"/>
													<path class="st8" d="M209.7,240.7c-1.5,4.3-3.4,8.4-5.6,12h-19.5c-0.7,0-1.4,0.1-2.1,0.1c-1.4-0.1-2.8,0.4-4.3,0.5
														c-2.9,0.7-5.9,1.7-8.8,3.2c-5.4,3.1-10.3,7.9-13.2,13.9c-0.2,0.3-0.3,0.6-0.5,1c-1.4,3.2-2.2,6.6-2.6,10L153,284
														l-0.1,3.7v34.1c0,15.6,0,26,0,26h-12c0,0,0-10.4,0-26v-26.7c0.1-4.8-0.2-10.2,0.2-14.7c0.5-4.7,1.6-9.4,3.6-13.8
														c0.5-1.1,1-2.1,1.5-3.1c4-7.5,10.3-13.5,17.3-17.4c4-2.1,8.1-3.6,12.2-4.4c4.2-0.8,7.8-1,11.8-0.9h22.2V240.7z"/>
													<path class="st8" d="M199.1,259.7c-4.9,5.7-10.7,10-17.1,12.3c0,0.1-0.1,0-0.1,0c-0.8,0.2-1.6,0.5-2.4,0.8
														c0,0,0,0-0.1,0c-0.4,0.1-0.7,0.3-1,0.5c-2.2,1.3-4.4,3.4-5.4,5.9c-0.5,1.2-0.9,2.5-1,3.9c0.1,0.4,0,0.7-0.1,1.1v37.7
														c0,15.6,0,26,0,26h-12c0,0,0-10.4,0-26v-34.1l0.1-3.7c0.1-0.7,0.1-1.4,0.1-2c0.3-2.6,0.9-5.3,2-7.7
														c0.2-0.5,0.4-0.9,0.7-1.4c2.2-4.4,5.9-8,10-10.2c2.2-1.2,4.5-1.9,6.8-2.5c1.2-0.1,2.2-0.4,3.4-0.4
														c0.6-0.1,1.2-0.1,1.7-0.1L199.1,259.7L199.1,259.7z"/>
												</g>
											</g>
										</g>
										<g>
											<circle class="st9" cx="132.2" cy="335.1" r="19.1"/>
											<path class="st8" d="M132.2,359.3c-13.3,0-24.2-10.9-24.2-24.2s10.9-24.2,24.2-24.2s24.2,10.9,24.2,24.2
												S145.5,359.3,132.2,359.3z M132.2,321.1c-7.7,0-14,6.3-14,14s6.3,14,14,14s14-6.3,14-14S139.9,321.1,132.2,321.1z"/>
										</g>
										<g>
											<path class="st9" d="M178.2,341.7c0,7.7-6.2,13.9-13.9,13.9s-13.9-6.2-13.9-13.9s6.2-13.9,13.9-13.9
												S178.2,334,178.2,341.7z"/>
											<path class="st8" d="M164.2,359.3c-9.7,0-17.7-7.9-17.7-17.7s7.9-17.7,17.7-17.7s17.7,7.9,17.7,17.7
												S173.9,359.3,164.2,359.3z M164.2,331.4c-5.6,0-10.2,4.6-10.2,10.2s4.6,10.2,10.2,10.2c5.6,0,10.2-4.6,10.2-10.2
												S169.9,331.4,164.2,331.4z"/>
										</g>
										<g>
											<path class="st9" d="M84.3,345.7c0,5.9-4.8,10.8-10.8,10.8c-5.9,0-10.8-4.8-10.8-10.8c0-5.9,4.8-10.8,10.8-10.8
												C79.5,335,84.3,339.8,84.3,345.7z"/>
											<path class="st8" d="M73.6,359.3c-7.5,0-13.6-6.1-13.6-13.6s6.1-13.6,13.6-13.6s13.6,6.1,13.6,13.6
												S81.1,359.3,73.6,359.3z M73.6,337.8c-4.4,0-7.9,3.5-7.9,7.9s3.5,7.9,7.9,7.9s7.9-3.5,7.9-7.9
												C81.5,341.4,77.9,337.8,73.6,337.8z"/>
										</g>
										<g>
											<circle class="st9" cx="98.8" cy="340" r="14.3"/>
											<path class="st8" d="M98.8,359.3c-10.7,0-19.4-8.7-19.4-19.4c0-10.7,8.7-19.4,19.4-19.4s19.4,8.7,19.4,19.4
												C118.1,350.7,109.4,359.3,98.8,359.3z M98.8,330.8c-5.1,0-9.2,4.1-9.2,9.2s4.1,9.2,9.2,9.2s9.2-4.1,9.2-9.2
												S103.8,330.8,98.8,330.8z"/>
										</g>
										<g>
											<circle class="st9" cx="193.2" cy="340" r="14.3"/>
											<path class="st8" d="M193.2,359.3c-10.7,0-19.4-8.7-19.4-19.4c0-10.7,8.7-19.4,19.4-19.4s19.4,8.7,19.4,19.4
												C212.5,350.7,203.9,359.3,193.2,359.3z M193.2,330.8c-5.1,0-9.2,4.1-9.2,9.2s4.1,9.2,9.2,9.2c5.1,0,9.2-4.1,9.2-9.2
												S198.3,330.8,193.2,330.8z"/>
										</g>
										<g>
											<circle class="st8" cx="73.6" cy="316" r="6.8"/>
											<ellipse class="st9" cx="69.4" cy="315.8" rx="1.6" ry="2.2"/>
										</g>
										<g>
											<circle class="st8" cx="84.5" cy="291.6" r="9.5"/>
											<ellipse class="st9" cx="78.8" cy="291.3" rx="2.2" ry="3.1"/>
										</g>
										<g>
											<path class="st8" d="M198.5,303.7c0,5.2-4.3,9.5-9.5,9.5s-9.5-4.3-9.5-9.5s4.3-9.5,9.5-9.5S198.5,298.5,198.5,303.7z"/>
											<ellipse class="st9" cx="183.3" cy="303.4" rx="2.2" ry="3.1"/>
										</g>
									</g>
								</g>
							</g>
						</g>
					</g>
				</g>
			</g>
		</g>
	</g>
</g>
</svg>
