<?xml version="1.0" encoding="UTF-8"?>
<svg width="142px" height="142px" viewBox="0 0 142 142" version="1.1" xmlns="http://www.w3.org/2000/svg" xmlns:xlink="http://www.w3.org/1999/xlink">
    <!-- Generator: Sketch 54.1 (76490) - https://sketchapp.com -->
    <title>Group 29</title>
    <desc>Created with Sketch.</desc>
    <defs>
        <linearGradient x1="50%" y1="0%" x2="50%" y2="100%" id="linearGradient-1">
            <stop stop-color="#00D7F2" offset="0%"></stop>
            <stop stop-color="#1D3BAD" offset="100%"></stop>
        </linearGradient>
        <polygon id="path-2" points="0 0.000127659574 79.9997872 0.000127659574 79.9997872 80 0 80"></polygon>
        <polygon id="path-4" points="0 80 80 80 80 0 0 0"></polygon>
    </defs>
    <g id="Page-1" stroke="none" stroke-width="1" fill="none" fill-rule="evenodd">
        <g id="Gea_LP_Homepage" transform="translate(-1295.000000, -3489.000000)">
            <g id="CONTENT-USUARIOS" transform="translate(0.000000, 3032.000000)">
                <g id="Group-11-Copy-2" transform="translate(1175.000000, 386.000000)">
                    <g id="Group-29" transform="translate(121.000000, 72.000000)">
                        <circle id="Oval-Copy-4" stroke="url(#linearGradient-1)" stroke-width="2" cx="70" cy="70" r="70"></circle>
                        <g id="Group-28" transform="translate(30.000000, 30.000000)">
                            <path d="M47,19.4997856 C47,15.9161363 44.0841963,13 40.5,13 C36.9158037,13 34,15.9161363 34,19.4997856 C34,23.0838637 36.9158037,26 40.5,26 C44.0841963,26 47,23.0838637 47,19.4997856" id="Fill-1" fill="#667080"></path>
                            <g id="Group-5">
                                <mask id="mask-3" fill="white">
                                    <use xlink:href="#path-2"></use>
                                </mask>
                                <g id="Clip-4"></g>
                                <path d="M77.4193617,36.1290638 L59.3546809,36.1290638 L59.3546809,33.5486383 L74.8389362,33.5486383 L74.8389362,30.9677872 L59.3546809,30.9677872 L59.3546809,28.3873617 L74.8389362,28.3873617 L74.8389362,25.8065106 L59.3546809,25.8065106 L59.3546809,23.2260851 L74.8389362,23.2260851 L74.8389362,20.645234 L59.3546809,20.645234 L59.3546809,18.064383 L74.8389362,18.064383 L74.8389362,15.4835319 L59.3546809,15.4835319 L59.3546809,12.9031064 L74.8389362,12.9031064 L74.8389362,10.3222553 L59.3546809,10.3222553 L59.3546809,7.74182979 L77.4193617,7.74182979 L77.4193617,36.1290638 Z M56.7742553,36.1290638 L53.643617,36.1290638 C52.9355319,33.6375745 51.5653191,31.4282128 49.7329787,29.6954468 L52.5197872,26.9082128 L51.0270213,23.9222553 L54.1934043,22.8656596 L54.1934043,15.845234 L51.0257447,14.7886383 L52.5185106,11.8026809 L47.5534043,6.83757447 L44.5661702,8.33161702 L43.5108511,5.16140426 L36.4904255,5.16140426 L35.4346809,8.33034043 L32.4474468,6.83587234 L27.4823404,11.8014043 L28.9755319,14.7873617 L25.8061702,15.8439574 L25.8061702,22.864383 L28.9742553,23.9214043 L27.4814894,26.9069362 L30.2682979,29.6941702 C28.4346809,31.4269362 27.0644681,33.6362979 26.3559574,36.1277872 L23.2257447,36.1277872 L23.2257447,2.58055319 L56.7742553,2.58055319 L56.7742553,36.1290638 Z M48.9623404,51.3975745 C49.0040426,51.0439574 49.0321277,50.6865106 49.0321277,50.3222553 L49.0321277,44.1082128 C50.5304255,44.6426809 51.6129787,46.0618298 51.6129787,47.7418298 C51.6129787,49.4477872 50.4968085,50.8826809 48.9623404,51.3975745 L48.9623404,51.3975745 Z M42.5806383,60.110766 L39.9997872,62.691617 L37.4193617,60.110766 L37.4193617,58.9741702 C38.237234,59.2192766 39.1031915,59.3545957 39.9997872,59.3545957 C40.8968085,59.3545957 41.762766,59.2192766 42.5806383,58.9745957 L42.5806383,60.110766 Z M55.1329787,64.790766 C56.8580851,65.2218298 58.0644681,66.7665106 58.0644681,68.5460851 L58.0644681,77.4192766 L45.3985106,77.4192766 C45.9329787,75.9214043 47.3521277,74.8388511 49.0321277,74.8388511 L55.4840426,74.8388511 L55.4840426,69.6775745 L52.9031915,69.6775745 L52.9031915,72.258 L50.322766,72.258 L50.322766,64.5162979 L41.8244681,64.5162979 L44.2670213,62.0737447 L55.1329787,64.790766 Z M21.9355319,68.5460851 C21.9355319,66.7665106 23.1419149,65.2218298 24.8670213,64.790766 L35.7329787,62.0750213 L38.1755319,64.5162979 L29.677234,64.5162979 L29.677234,72.258 L27.0968085,72.258 L27.0968085,69.6775745 L24.5159574,69.6775745 L24.5159574,74.8388511 L30.9678723,74.8388511 C32.6478723,74.8388511 34.0670213,75.9214043 34.6010638,77.4192766 L21.9355319,77.4192766 L21.9355319,68.5460851 Z M28.3870213,47.7418298 C28.3870213,46.0618298 29.4695745,44.6426809 30.9678723,44.1082128 L30.9678723,50.3222553 C30.9678723,50.6865106 30.9959574,51.0439574 31.037234,51.3975745 C29.5031915,50.8826809 28.3870213,49.4477872 28.3870213,47.7418298 L28.3870213,47.7418298 Z M30.6206383,26.3988511 L32.0155319,23.6090638 L31.7648936,23.0503404 C31.6929787,22.8890638 31.6295745,22.7265106 31.5653191,22.5609787 L31.3470213,21.9920426 L28.3870213,21.005234 L28.3870213,17.7031064 L31.3470213,16.7162979 L31.5653191,16.1469362 C31.6295745,15.9818298 31.6942553,15.8184255 31.7648936,15.6584255 L32.0155319,15.0992766 L30.6206383,12.3094894 L32.9546809,9.97544681 L35.7444681,11.3703404 L36.3031915,11.1201277 C36.4619149,11.0490638 36.6231915,10.984383 36.7870213,10.9226809 L37.3610638,10.7056596 L38.3495745,7.74182979 L41.6517021,7.74182979 L42.6402128,10.7073617 L43.2142553,10.9239574 C43.3780851,10.9856596 43.5393617,11.0499149 43.6980851,11.1209787 L44.2568085,11.371617 L47.0465957,9.9767234 L49.3806383,12.310766 L47.9857447,15.1005532 L48.2359574,15.6592766 C48.3082979,15.8205532 48.3717021,15.9831064 48.4359574,16.1482128 L48.6542553,16.7175745 L51.6129787,17.704383 L51.6129787,21.0065106 L48.6529787,21.9933191 L48.4346809,22.5626809 C48.3704255,22.7277872 48.3057447,22.891617 48.2351064,23.051617 L47.9844681,23.6103404 L49.3793617,26.4001277 L47.6917021,28.0886383 C45.4721277,26.6503404 42.8351064,25.8065106 39.9997872,25.8065106 C37.1648936,25.8065106 34.5291489,26.6503404 32.3095745,28.0877872 L30.6206383,26.3988511 Z M2.5806383,36.1290638 L2.5806383,7.74182979 L20.6453191,7.74182979 L20.6453191,11.0065106 C20.357234,11.144383 20.0776596,11.3005532 19.8104255,11.4784255 L18.0644681,12.6426809 L16.317234,11.4784255 C15.1831915,10.7226809 13.8619149,10.3222553 12.5006383,10.3222553 L12.0465957,10.3222553 C8.25042553,10.3222553 5.16106383,13.411617 5.16106383,17.2077872 C5.16106383,18.910766 5.78829787,20.5473617 6.92914894,21.8141702 L18.0644681,34.1873617 L20.6453191,31.3197021 L20.6453191,36.1290638 L2.5806383,36.1290638 Z M59.3546809,5.16140426 L59.3546809,0.000127659574 L20.6453191,0.000127659574 L20.6453191,5.16140426 L-0.000212765957,5.16140426 L-0.000212765957,38.7094894 L20.6453191,38.7094894 L21.9355319,38.7094894 L25.8721277,38.7094894 C25.8334043,39.1354468 25.8061702,39.5639574 25.8061702,40.0001277 L25.8061702,47.7418298 C25.8061702,51.1524681 28.4759574,53.925234 31.8308511,54.1511915 C32.5070213,55.5894894 33.5470213,56.8218298 34.8389362,57.725234 L34.8389362,59.6388511 L24.242766,62.2877872 C21.3648936,63.0065106 19.3546809,65.5792766 19.3546809,68.5460851 L19.3546809,80.0001277 L60.6453191,80.0001277 L60.6453191,68.5460851 C60.6453191,65.5792766 58.6346809,63.0065106 55.757234,62.2865106 L45.1610638,59.6371489 L45.1610638,57.7239574 C46.4529787,56.8205532 47.4929787,55.5882128 48.1691489,54.1499149 C51.5240426,53.925234 54.1934043,51.1524681 54.1934043,47.7418298 L54.1934043,40.0001277 C54.1934043,39.5639574 54.1661702,39.1354468 54.1278723,38.7094894 L58.0644681,38.7094894 L59.3546809,38.7094894 L79.9997872,38.7094894 L79.9997872,5.16140426 L59.3546809,5.16140426 Z" id="Fill-3" fill="#667080" mask="url(#mask-3)"></path>
                            </g>
                            <path d="M40.5,56 C36.9158037,56 34,53.1404581 34,49.6254205 L34,43.1478285 C36.3593101,42.808518 38.5329794,41.5727889 39.9799486,39.6807232 L40.5,39 L41.0200514,39.6807232 C42.4657345,41.571948 44.6394037,42.808518 47,43.1478285 L47,49.6254205 C47,53.1404581 44.0841963,56 40.5,56" id="Fill-6" fill="#FFFFFF"></path>
                            <mask id="mask-5" fill="white">
                                <use xlink:href="#path-4"></use>
                            </mask>
                            <g id="Clip-9"></g>
                            <polygon id="Fill-8" fill="#6665DD" mask="url(#mask-5)" points="72 55 75 55 75 52 72 52"></polygon>
                            <polygon id="Fill-10" fill="#6665DD" mask="url(#mask-5)" points="72 59 75 59 75 56 72 56"></polygon>
                            <polygon id="Fill-11" fill="#6665DD" mask="url(#mask-5)" points="74 57 77 57 77 54 74 54"></polygon>
                            <polygon id="Fill-12" fill="#6665DD" mask="url(#mask-5)" points="70 57 73 57 73 54 70 54"></polygon>
                            <polygon id="Fill-13" fill="#00E5A8" mask="url(#mask-5)" points="5 53 8 53 8 50 5 50"></polygon>
                            <polygon id="Fill-14" fill="#00E5A8" mask="url(#mask-5)" points="5 58 8 58 8 55 5 55"></polygon>
                            <polygon id="Fill-15" fill="#00E5A8" mask="url(#mask-5)" points="7 56 10 56 10 53 7 53"></polygon>
                            <polygon id="Fill-16" fill="#00E5A8" mask="url(#mask-5)" points="3 56 6 56 6 53 3 53"></polygon>
                            <polygon id="Fill-17" fill="#00D4EE" mask="url(#mask-5)" points="9 70 12 70 12 67 9 67"></polygon>
                            <polygon id="Fill-18" fill="#00D4EE" mask="url(#mask-5)" points="9 75 12 75 12 72 9 72"></polygon>
                            <polygon id="Fill-19" fill="#00D4EE" mask="url(#mask-5)" points="12 73 15 73 15 70 12 70"></polygon>
                            <polygon id="Fill-20" fill="#00D4EE" mask="url(#mask-5)" points="6 73 9 73 9 70 6 70"></polygon>
                            <polygon id="Fill-21" fill="#667080" mask="url(#mask-5)" points="65 73 68 73 68 70 65 70"></polygon>
                            <polygon id="Fill-22" fill="#667080" mask="url(#mask-5)" points="65 77 68 77 68 74 65 74"></polygon>
                            <polygon id="Fill-23" fill="#667080" mask="url(#mask-5)" points="68 75 71 75 71 72 68 72"></polygon>
                            <polygon id="Fill-24" fill="#667080" mask="url(#mask-5)" points="63 75 66 75 66 72 63 72"></polygon>
                            <path d="M21,27.2028522 L18.4002572,30 L9.11295057,20.0090596 C8.39656366,19.2365022 8,18.2389441 8,17.1994579 C8,14.8846915 9.94509118,13 12.336906,13 L12.7943475,13 C13.6526399,13 14.485638,13.2445117 15.2007387,13.7048912 L18.4002572,15.77224 L21,14.0926229 L21,27.2028522 Z" id="Fill-25" fill="#6665DD" mask="url(#mask-5)"></path>
                            <path d="M40,24 C37.7948774,24 36,22.2051226 36,19.9995603 C36,17.7948774 37.7948774,16 40,16 C42.2051226,16 44,17.7948774 44,19.9995603 C44,22.2051226 42.2051226,24 40,24" id="Fill-26" fill="#00E5A8" mask="url(#mask-5)"></path>
                            <path d="M47,72.126144 C44.5550334,72.6249485 42.6249485,74.5550334 42.126144,77 L36.873856,77 C36.3750515,74.5550334 34.4449666,72.6249485 32,72.126144 L32,67 L47,67 L47,72.126144 Z" id="Fill-27" fill="#00E5A8" mask="url(#mask-5)"></path>
                        </g>
                    </g>
                </g>
            </g>
        </g>
    </g>
</svg>