<?xml version="1.0" encoding="UTF-8"?>
<svg width="66px" height="66px" viewBox="0 0 66 66" version="1.1" xmlns="http://www.w3.org/2000/svg" xmlns:xlink="http://www.w3.org/1999/xlink">
    <!-- Generator: Sketch 54.1 (76490) - https://sketchapp.com -->
    <title>Group 21</title>
    <desc>Created with Sketch.</desc>
    <defs>
        <linearGradient x1="50%" y1="0.362116408%" x2="50%" y2="98.7040752%" id="linearGradient-1">
            <stop stop-color="#00D4EE" offset="0%"></stop>
            <stop stop-color="#1D3BAD" offset="100%"></stop>
        </linearGradient>
    </defs>
    <g id="Page-1" stroke="none" stroke-width="1" fill="none" fill-rule="evenodd">
        <g id="Gea_LP_Homepage" transform="translate(-853.000000, -1269.000000)">
            <g id="CONTENT-CARACTERISTICAS" transform="translate(0.000000, 684.000000)">
                <g id="Group-17" transform="translate(361.000000, 200.000000)">
                    <g id="Group-18" transform="translate(493.000000, 2.000000)">
                        <g id="Group-6-Copy" transform="translate(0.000000, 384.000000)">
                            <g id="Group-21">
                                <circle id="Oval" stroke="url(#linearGradient-1)" stroke-width="2" cx="32" cy="32" r="32"></circle>
                                <g id="ic-tiemporeal" transform="translate(17.000000, 15.000000)">
                                    <g id="Group-47">
                                        <path d="M3.40252775,26.6260621 C3.7153948,26.6260621 3.96948728,26.3723147 3.96948728,26.0596937 L3.96948728,26.0219358 C3.96948728,25.7094937 3.7153948,25.4745358 3.40252775,25.4745358 C3.0894815,25.4745358 2.83538902,25.7472516 2.83538902,26.0596937 C2.83538902,26.3723147 3.0894815,26.6260621 3.40252775,26.6260621" id="Fill-1" fill="#00D4EE"></path>
                                        <path d="M3.40252775,24.7579411 C3.7153948,24.7579411 3.96948728,24.5047305 3.96948728,24.1917516 L3.96948728,24.1539937 C3.96948728,23.8413726 3.7153948,23.6064147 3.40252775,23.6064147 C3.0894815,23.6064147 2.83538902,23.8791305 2.83538902,24.1917516 C2.83538902,24.5047305 3.0894815,24.7579411 3.40252775,24.7579411" id="Fill-3" fill="#00D4EE"></path>
                                        <path d="M5.45078555,24.7511232 C5.74967572,24.7357337 5.98746185,24.4887863 5.98746185,24.1860074 L5.98710347,24.1478916 C5.98298208,23.8495863 5.74788382,23.6205337 5.45221908,23.60586 L5.41279711,23.6042495 C5.09957168,23.6042495 4.84583757,23.8730284 4.84583757,24.1856495 C4.84583757,24.4982705 5.09957168,24.7520179 5.41279711,24.7520179 L5.45078555,24.7511232 Z" id="Fill-5" fill="#00D4EE"></path>
                                        <path d="M7.46196879,23.6035158 L7.42254682,23.6028 C7.10950058,23.6028 6.85558728,23.8674632 6.85558728,24.1800842 C6.85558728,24.4927053 7.10950058,24.7462737 7.42254682,24.7462737 L7.46071445,24.7455579 C7.76372601,24.7337474 8.00473757,24.4855474 8.00473757,24.1800842 L8.00437919,24.1414316 C7.99595723,23.8443789 7.75870867,23.6146105 7.46196879,23.6035158" id="Fill-7" fill="#00D4EE"></path>
                                        <path d="M9.4720948,23.6012432 L9.4333896,23.6005274 C9.11998497,23.6005274 8.86589249,23.8612537 8.86589249,24.1747695 C8.86589249,24.4868537 9.11998497,24.7409589 9.4333896,24.7409589 L9.47119884,24.7398853 C9.77743584,24.7321905 10.0231064,24.4816642 10.0231064,24.1747695 L10.0223896,24.1354011 C10.0100254,23.8394221 9.76990983,23.6084011 9.4720948,23.6012432" id="Fill-9" fill="#00D4EE"></path>
                                        <path d="M11.4816832,23.5986305 L11.4431572,23.5982726 C11.130111,23.5982726 10.8760185,23.8557779 10.8760185,24.1683989 C10.8760185,24.48102 11.130111,24.7345884 11.4431572,24.7345884 L11.4813249,24.7342305 C11.7909665,24.7299358 12.0404,24.4783358 12.0404,24.1683989 L12.0396832,24.1290305 C12.0233769,23.8341253 11.7807526,23.6027463 11.4816832,23.5986305" id="Fill-11" fill="#00D4EE"></path>
                                        <path d="M13.4918092,24.7285758 C13.8048555,24.7285758 14.058948,24.4748284 14.058948,24.1622074 C14.058948,23.8495863 13.8048555,23.5960179 13.4918092,23.5960179 L13.454,23.5960179 C13.1405954,23.5960179 12.8868613,23.8495863 12.8868613,24.1622074 C12.8868613,24.4748284 13.1405954,24.7285758 13.454,24.7285758 L13.4918092,24.7285758 Z" id="Fill-13" fill="#00D4EE"></path>
                                        <path d="M27.5974723,26.6260621 C27.9105185,26.6260621 28.164611,26.3723147 28.164611,26.0596937 C28.164611,25.7472516 27.9105185,25.4745358 27.5974723,25.4745358 C27.2846052,25.4745358 27.0305127,25.7094937 27.0305127,26.0219358 L27.0305127,26.0596937 C27.0305127,26.3723147 27.2846052,26.6260621 27.5974723,26.6260621" id="Fill-15" fill="#00D4EE"></path>
                                        <path d="M27.5974723,24.7579411 C27.9105185,24.7579411 28.164611,24.5047305 28.164611,24.1917516 C28.164611,23.8791305 27.9105185,23.6064147 27.5974723,23.6064147 C27.2846052,23.6064147 27.0305127,23.8413726 27.0305127,24.1539937 L27.0305127,24.1917516 C27.0305127,24.5047305 27.2846052,24.7579411 27.5974723,24.7579411" id="Fill-17" fill="#00D4EE"></path>
                                        <path d="M25.5875254,23.6042137 L25.5481035,23.6058242 C25.2526179,23.62014 25.0173405,23.8495505 25.0132191,24.1478558 L25.0128607,24.1859716 C25.0128607,24.4887505 25.2506468,24.7356979 25.5497162,24.7510874 L25.5878838,24.75234 C25.9012884,24.75234 26.1548434,24.4985926 26.1548434,24.1859716 C26.1548434,23.8735295 25.9009301,23.6042137 25.5875254,23.6042137" id="Fill-19" fill="#00D4EE"></path>
                                        <path d="M23.577059,23.6028179 L23.537637,23.6035337 C23.2408971,23.6144495 23.0034694,23.8447547 22.9948682,24.1419863 L22.9945098,24.18046 C22.9945098,24.4859232 23.236059,24.7341232 23.5383538,24.7459337 L23.5767006,24.7468284 C23.8895676,24.7468284 24.1436601,24.4930811 24.1436601,24.18046 C24.1436601,23.86766 23.8901052,23.6028179 23.577059,23.6028179" id="Fill-21" fill="#00D4EE"></path>
                                        <path d="M21.5665925,23.6005453 L21.5278873,23.6012611 C21.2300723,23.6087768 20.9899566,23.83944 20.9775925,24.1354189 L20.9768757,24.1747874 C20.9768757,24.4816821 21.2225462,24.7327453 21.5287832,24.7399032 L21.5665925,24.7409768 C21.8799971,24.7409768 22.1340896,24.4868716 22.1340896,24.1747874 C22.1340896,23.8612716 21.8799971,23.6005453 21.5665925,23.6005453" id="Fill-23" fill="#00D4EE"></path>
                                        <path d="M19.5564665,23.5982726 L19.5179405,23.5986305 C19.2188711,23.6027463 18.9762468,23.8341253 18.9595821,24.1290305 L18.9586861,24.1683989 C18.9586861,24.4781568 19.2082988,24.7299358 19.5179405,24.7342305 L19.5561081,24.7345884 C19.8691543,24.7345884 20.1230676,24.48102 20.1230676,24.1683989 C20.1230676,23.8555989 19.8698711,23.5982726 19.5564665,23.5982726" id="Fill-25" fill="#00D4EE"></path>
                                        <path d="M17.546,24.7285758 C17.8594046,24.7285758 18.1131387,24.4748284 18.1131387,24.1622074 C18.1131387,23.8495863 17.8594046,23.5960179 17.546,23.5960179 L17.5081908,23.5960179 C17.1951445,23.5960179 16.941052,23.8495863 16.941052,24.1622074 C16.941052,24.4748284 17.1951445,24.7285758 17.5081908,24.7285758 L17.546,24.7285758 Z" id="Fill-27" fill="#00D4EE"></path>
                                        <path d="M14.9328613,26.0498874 C14.9328613,26.3625084 15.1869538,26.6162558 15.5,26.6162558 C15.8130462,26.6162558 16.0671387,26.3625084 16.0671387,26.0498874 L16.0671387,26.0310979 C16.0671387,25.7182979 15.8130462,25.4647295 15.5,25.4647295 C15.1869538,25.4647295 14.9328613,25.7182979 14.9328613,26.0310979 L14.9328613,26.0498874 Z" id="Fill-29" fill="#00D4EE"></path>
                                        <path d="M14.9328613,24.1791537 C14.9328613,24.4917747 15.1869538,24.7455221 15.5,24.7455221 C15.8130462,24.7455221 16.0671387,24.4917747 16.0671387,24.1791537 L16.0671387,24.1456905 C16.0671387,23.8325326 15.8130462,23.5793221 15.5,23.5793221 C15.1869538,23.5793221 14.9328613,23.8325326 14.9328613,24.1456905 L14.9328613,24.1791537 Z" id="Fill-31" fill="#00D4EE"></path>
                                        <path d="M15.5,22.8597747 C15.8130462,22.8597747 16.0671387,22.6060274 16.0671387,22.2934063 L16.0671387,22.2744379 C16.0671387,21.9614589 15.8130462,21.7082484 15.5,21.7082484 C15.1869538,21.7082484 14.9328613,21.9614589 14.9328613,22.2744379 L14.9328613,22.2934063 C14.9328613,22.6060274 15.1869538,22.8597747 15.5,22.8597747" id="Fill-33" fill="#00D4EE"></path>
                                        <path d="M3.40252775,32.8455211 C2.15159711,32.8455211 1.13415202,31.8296368 1.13415202,30.5804053 C1.13415202,29.3309947 2.15159711,28.3152895 3.40252775,28.3152895 C4.65327919,28.3152895 5.67072428,29.3309947 5.67072428,30.5804053 C5.67072428,31.8296368 4.65327919,32.8455211 3.40252775,32.8455211 M3.40252775,27.1825526 C1.52317514,27.1825526 5.37572254e-05,28.7036053 5.37572254e-05,30.5804053 C5.37572254e-05,32.4570263 1.52317514,33.9780789 3.40252775,33.9780789 C5.28170116,33.9780789 6.80482254,32.4570263 6.80482254,30.5804053 C6.80482254,28.7036053 5.28170116,27.1825526 3.40252775,27.1825526" id="Fill-35" fill="#6665DD"></path>
                                        <path d="M15.5,32.8455211 C14.2490694,32.8455211 13.2318035,31.8296368 13.2318035,30.5804053 C13.2318035,29.3309947 14.2490694,28.3152895 15.5,28.3152895 C16.7509306,28.3152895 17.7681965,29.3309947 17.7681965,30.5804053 C17.7681965,31.8296368 16.7509306,32.8455211 15.5,32.8455211 M15.5,27.1825526 C13.6208266,27.1825526 12.097526,28.7036053 12.097526,30.5804053 C12.097526,32.4570263 13.6208266,33.9780789 15.5,33.9780789 C17.3791734,33.9780789 18.902474,32.4570263 18.902474,30.5804053 C18.902474,28.7036053 17.3791734,27.1825526 15.5,27.1825526" id="Fill-37" fill="#00E5A8"></path>
                                        <path d="M27.5974723,32.8455211 C26.3467208,32.8455211 25.3292757,31.8296368 25.3292757,30.5804053 C25.3292757,29.3309947 26.3467208,28.3152895 27.5974723,28.3152895 C28.8484029,28.3152895 29.865848,29.3309947 29.865848,30.5804053 C29.865848,31.8296368 28.8484029,32.8455211 27.5974723,32.8455211 M27.5974723,27.1825526 C25.7182988,27.1825526 24.1951775,28.7036053 24.1951775,30.5804053 C24.1951775,32.4570263 25.7182988,33.9780789 27.5974723,33.9780789 C29.4768249,33.9780789 30.9999462,32.4570263 30.9999462,30.5804053 C30.9999462,28.7036053 29.4768249,27.1825526 27.5974723,27.1825526" id="Fill-39" fill="#663366"></path>
                                        <path d="M15.5,20.0093758 C10.2885954,20.0093758 6.04876301,15.7753021 6.04876301,10.5709758 C6.04876301,5.36664947 10.2885954,1.13257579 15.5,1.13257579 C20.7114046,1.13257579 24.951237,5.36664947 24.951237,10.5709758 C24.951237,15.7753021 20.7114046,20.0093758 15.5,20.0093758 M15.5,1.78947368e-05 C9.6526474,1.78947368e-05 4.91466474,4.73246 4.91466474,10.5709758 C4.91466474,16.4096705 9.6526474,21.1419337 15.5,21.1419337 C21.3464566,21.1419337 26.0853353,16.4096705 26.0853353,10.5709758 C26.0853353,4.73246 21.3464566,1.78947368e-05 15.5,1.78947368e-05" id="Fill-41" fill="#1D3BAD"></path>
                                        <path d="M15.5,15.6952411 C12.8332832,15.6952411 10.6636416,13.5287253 10.6636416,10.8654516 C10.6636416,8.20235684 12.8332832,6.03602 15.5,6.03602 C18.1672543,6.03602 20.3363584,8.20235684 20.3363584,10.8654516 C20.3363584,13.5287253 18.1672543,15.6952411 15.5,15.6952411 L15.5,15.6952411 Z M20.3032081,6.86973579 L20.4239827,6.99016737 C20.6456416,7.21134632 21.0043815,7.21098842 21.2258613,6.99016737 C21.447341,6.76880947 21.447341,6.41019895 21.2258613,6.18902 L20.1820751,5.14700947 C19.9605954,4.92565158 19.6014971,4.92600947 19.3801965,5.14700947 C19.1587168,5.36818842 19.1587168,5.72679895 19.3801965,5.94797789 L19.5007919,6.06840947 L19.301711,6.26775684 C18.4061156,5.52834632 17.2899364,5.04679895 16.0666012,4.93137789 L16.0666012,4.17997789 L17.1136127,4.17997789 C17.4264798,4.17997789 17.6805723,3.92623053 17.6805723,3.61378842 C17.6805723,3.30116737 17.4264798,3.04742 17.1136127,3.04742 L13.8863873,3.04742 C13.5731618,3.04742 13.3194277,3.30116737 13.3194277,3.61378842 C13.3194277,3.92623053 13.5731618,4.17997789 13.8863873,4.17997789 L14.9328613,4.17997789 L14.9328613,4.93137789 C11.9013121,5.21679895 9.52954335,7.76286211 9.52954335,10.8650937 C9.52954335,14.1582621 12.2023526,16.8274411 15.5,16.8274411 C18.7976474,16.8274411 21.4704566,14.1582621 21.4704566,10.8650937 C21.4704566,9.42242 20.9574335,8.09999895 20.1037688,7.06854632 L20.3032081,6.86973579 Z" id="Fill-43" fill="#663366"></path>
                                        <path d="M15.5,11.6715379 C15.0543526,11.6715379 14.6929249,11.3109589 14.6929249,10.86538 C14.6929249,10.4206958 15.0543526,10.0597589 15.5,10.0597589 C15.945289,10.0597589 16.3070751,10.4206958 16.3070751,10.86538 C16.3070751,11.3109589 15.945289,11.6715379 15.5,11.6715379 M15.5,8.92720105 C15.1715434,8.92720105 14.8663815,9.01667474 14.5945491,9.16126421 L13.4432486,8.01170632 C13.2217688,7.79052737 12.8626705,7.79052737 12.6411908,8.01170632 C12.4200694,8.23288526 12.4200694,8.59113789 12.6415491,8.81231684 L13.7928497,9.96187474 C13.6482428,10.2335168 13.5586474,10.5373695 13.5586474,10.86538 C13.5586474,11.9342326 14.4296936,12.8040958 15.5,12.8040958 C16.5703064,12.8040958 17.4413526,11.9342326 17.4413526,10.86538 C17.4413526,9.79652737 16.5703064,8.92720105 15.5,8.92720105" id="Fill-45" fill="#00D4EE"></path>
                                    </g>
                                </g>
                            </g>
                        </g>
                    </g>
                </g>
            </g>
        </g>
    </g>
</svg>