<?xml version="1.0" encoding="UTF-8"?>
<svg width="80px" height="80px" viewBox="0 0 80 80" version="1.1" xmlns="http://www.w3.org/2000/svg" xmlns:xlink="http://www.w3.org/1999/xlink">
    <!-- Generator: Sketch 54.1 (76490) - https://sketchapp.com -->
    <title>Group 6</title>
    <desc>Created with Sketch.</desc>
    <defs>
        <polygon id="path-1" points="0 0.0823548454 79.0618776 0.0823548454 79.0618776 79.3469388 0 79.3469388"></polygon>
    </defs>
    <g id="Page-1" stroke="none" stroke-width="1" fill="none" fill-rule="evenodd">
        <g id="Gea_LP_Homepage" transform="translate(-781.000000, -455.000000)">
            <g id="Group-6" transform="translate(781.000000, 455.000000)">
                <g id="Group-3" transform="translate(0.000000, 0.244245)">
                    <mask id="mask-2" fill="white">
                        <use xlink:href="#path-1"></use>
                    </mask>
                    <g id="Clip-2"></g>
                    <path d="M64.5773061,65.9149388 C60.1485714,70.9170612 54.4013061,74.5232653 48.0643265,76.3397551 C51.4096327,73.8261224 54.2530612,70.8060408 56.5645714,67.3056327 C60.5697959,61.24 63.0093061,53.6713469 63.8155102,44.8093061 C63.9062857,43.810449 63.9353469,42.8073469 63.9356735,41.9061224 L73.3149388,42.0174694 C73.3250612,42.4285714 73.3276735,42.834449 73.3227755,43.2334694 C73.2231837,51.602449 70.1172245,59.6573061 64.5773061,65.9149388 L64.5773061,65.9149388 Z M26.384,50.8148571 L39.3080816,50.8236735 L40.442449,50.8246531 L40.4564898,49.6902857 L40.5025306,45.9740408 C43.0488163,45.5100408 45.0576327,43.5149388 45.5578776,40.9986939 L56.4747755,41.1286531 C56.1701224,45.0463673 54.5273469,48.7227755 51.7812245,51.5838367 C48.7585306,54.733551 44.6821224,56.5928163 40.3030204,56.8197551 C40.0042449,56.8347755 39.7012245,56.8429388 39.403102,56.8429388 C34.340898,56.8429388 29.616,54.6238367 26.384,50.8148571 L26.384,50.8148571 Z M75.0661224,40.2019592 L62.064,40.0471837 L57.6731429,39.9949388 L44.5299592,39.8388571 C44.4956735,42.5369796 42.3706122,44.7799184 39.6372245,44.9213061 C39.5467755,44.9262041 39.4569796,44.9284898 39.3675102,44.9284898 L39.3671837,44.9366531 C36.6569796,44.9154286 34.3986939,42.7857959 34.2569796,40.0435918 C34.1097143,37.1962449 36.2981224,34.7684898 39.1457959,34.6212245 C41.8915918,34.4788571 44.2475102,36.5098776 44.5426939,39.2096327 L57.6084898,37.7363265 C56.5622857,28.1882449 48.2311837,21.0022857 38.5165714,21.5044898 C28.4450612,22.0266122 20.7036735,30.6130612 21.2248163,40.6839184 C21.3965714,44.0027755 22.4483265,47.0649796 24.1358367,49.6654694 L24.1005714,49.6654694 C24.1031837,49.6697143 24.106449,49.6739592 24.1090612,49.6782041 C24.106449,49.6739592 24.1031837,49.6697143 24.1005714,49.6654694 L18.9410612,49.6044082 C17.4337959,46.9036735 16.8310204,43.2053878 16.7121633,40.9053061 C16.0626939,28.3652245 25.7031837,17.6733061 38.2432653,17.0238367 C50.3350204,16.3982041 60.7053061,25.3392653 62.0133878,37.2233469 L78.8199184,35.3216327 C76.6050612,15.3640816 59.7263673,0.176489796 39.6362449,0.0831020408 C39.4491429,0.082122449 39.2620408,0.0817959184 39.0752653,0.0840816327 C39.0001633,0.0850612245 38.9247347,0.0863673469 38.8496327,0.0873469388 C38.7399184,0.0896326531 38.6302041,0.0951836735 38.5204898,0.0984489796 C38.5018776,0.0987755102 38.4829388,0.0991020408 38.4643265,0.0994285714 C38.4470204,0.100081633 38.4293878,0.101061224 38.4120816,0.101714286 C38.1982041,0.108571429 37.9846531,0.116081633 37.771102,0.126857143 C37.7283265,0.128816327 37.6862041,0.129795918 37.6434286,0.132081633 C37.6146939,0.133387755 37.5862857,0.135020408 37.5578776,0.136653061 C37.4553469,0.141877551 37.3541224,0.152 37.2522449,0.157877551 C37.1262041,0.166367347 37.0001633,0.174857143 36.874449,0.184326531 C33.3887347,0.427918367 30.0342857,1.11102041 26.8685714,2.18693878 C26.8499592,2.19314286 26.8310204,2.19934694 26.8124082,2.20587755 C26.5361633,2.3002449 26.2612245,2.39787755 25.9875918,2.49844898 C25.946449,2.51346939 25.9049796,2.5284898 25.8638367,2.54383673 C25.6130612,2.63657143 25.3639184,2.73257143 25.1154286,2.83053061 C25.0533878,2.85469388 24.9916735,2.87885714 24.9299592,2.90334694 C24.7033469,2.99412245 24.4783673,3.08718367 24.2537143,3.18187755 C24.1720816,3.21616327 24.0901224,3.25044898 24.0088163,3.28538776 C23.8050612,3.37289796 23.6026122,3.46269388 23.4008163,3.55346939 C23.3012245,3.59787755 23.2016327,3.64261224 23.1026939,3.68832653 C22.9195102,3.7722449 22.7376327,3.85844898 22.5560816,3.94530612 C22.4411429,4.0004898 22.3265306,4.05502041 22.2125714,4.11118367 C22.0466939,4.1924898 21.8817959,4.27542857 21.7172245,4.35869388 C21.5908571,4.42334694 21.4644898,4.48734694 21.3387755,4.55265306 C21.1869388,4.63167347 21.0360816,4.71265306 20.885551,4.79363265 C20.7503673,4.86644898 20.6155102,4.93926531 20.4813061,5.01338776 C20.3405714,5.09142857 20.2008163,5.17077551 20.0610612,5.25012245 C19.9203265,5.33012245 19.7802449,5.41012245 19.6404898,5.4917551 C19.5075918,5.56979592 19.3750204,5.64946939 19.2427755,5.72881633 C19.1004082,5.81436735 18.9580408,5.90057143 18.8166531,5.98808163 C18.6876735,6.0677551 18.5596735,6.14873469 18.432,6.23004082 C18.2906122,6.3195102 18.1492245,6.40963265 18.0091429,6.50106122 C17.8814694,6.58432653 17.7547755,6.66922449 17.6280816,6.75346939 C17.4912653,6.84555102 17.354449,6.93697959 17.2186122,7.03036735 C17.0893061,7.11918367 16.9606531,7.20963265 16.8323265,7.30008163 C16.7026939,7.3915102 16.5730612,7.48326531 16.4444082,7.57632653 C16.3105306,7.67297959 16.1776327,7.77159184 16.0447347,7.86987755 C15.925551,7.95869388 15.8060408,8.04685714 15.6878367,8.13697959 C15.5461224,8.24473469 15.4057143,8.35379592 15.2653061,8.46318367 C15.1591837,8.54644898 15.0527347,8.62938776 14.9472653,8.71330612 C14.7964082,8.83346939 14.6468571,8.95591837 14.4976327,9.07836735 C14.4058776,9.15379592 14.3137959,9.22889796 14.2223673,9.30563265 C14.0607347,9.44081633 13.9007347,9.57795918 13.7410612,9.7157551 C13.6656327,9.78106122 13.589551,9.84604082 13.514449,9.912 C13.3407347,10.0641633 13.1693061,10.2182857 12.9985306,10.3733878 C12.9394286,10.4269388 12.88,10.4801633 12.821551,10.5343673 C12.6357551,10.7051429 12.4519184,10.8778776 12.2693878,11.0522449 C12.2279184,11.0917551 12.1861224,11.1315918 12.1449796,11.171102 C11.9467755,11.3621224 11.7511837,11.5547755 11.556898,11.7497143 C11.5327347,11.7742041 11.5079184,11.7986939 11.4834286,11.8231837 C11.2741224,12.0347755 11.0667755,12.2483265 10.8620408,12.4648163 L10.837551,12.4906122 C7.14481633,16.3972245 4.24522449,21.0466939 2.37779592,26.1738776 C2.37126531,26.1921633 2.36440816,26.2101224 2.35787755,26.2284082 C2.26057143,26.4968163 2.16653061,26.7668571 2.07477551,27.0382041 C2.05942857,27.0845714 2.04342857,27.1309388 2.02808163,27.1769796 C1.94677551,27.4202449 1.86840816,27.6651429 1.79167347,27.9106939 C1.76783673,27.9867755 1.74432653,28.0622041 1.72081633,28.1386122 C1.65453061,28.3560816 1.59053061,28.5748571 1.52783673,28.7933061 C1.49746939,28.899102 1.46710204,29.0045714 1.43804082,29.1103673 C1.38481633,29.3020408 1.33355102,29.4943673 1.28326531,29.6873469 C1.248,29.8222041 1.21273469,29.9570612 1.17910204,30.0925714 C1.13763265,30.2587755 1.09746939,30.4249796 1.05828571,30.5918367 C1.0197551,30.755102 0.98155102,30.9186939 0.944979592,31.0829388 C0.913632653,31.2249796 0.883265306,31.3670204 0.852897959,31.5097143 C0.813061224,31.699102 0.774204082,31.8891429 0.736979592,32.0795102 C0.713142857,32.2003265 0.690612245,32.3214694 0.667755102,32.4426122 C0.628571429,32.6545306 0.590693878,32.8667755 0.55444898,33.0796735 C0.536816327,33.1831837 0.520163265,33.2870204 0.503510204,33.3908571 C0.466612245,33.6204082 0.431346939,33.8506122 0.398693878,34.0814694 C0.385306122,34.1732245 0.372897959,34.2649796 0.360163265,34.3570612 C0.327836735,34.5977143 0.297142857,34.8386939 0.269061224,35.0803265 C0.258612245,35.1681633 0.248816327,35.2556735 0.239020408,35.3438367 C0.212244898,35.5867755 0.187755102,35.8303673 0.16555102,36.0749388 C0.157061224,36.1670204 0.148897959,36.2594286 0.141387755,36.3518367 C0.121469388,36.5879184 0.103510204,36.8243265 0.0875102041,37.0613878 C0.0806530612,37.1688163 0.0737959184,37.2762449 0.0675918367,37.384 C0.0548571429,37.6008163 0.0444081633,37.8182857 0.0352653061,38.0364082 C0.0293877551,38.1715918 0.0244897959,38.307102 0.020244898,38.4426122 C0.0143673469,38.6267755 0.010122449,38.8112653 0.00653061224,38.9960816 C0.00359183673,39.1740408 0.000979591837,39.3526531 0.000326530612,39.5315918 C-0.000326530612,39.666449 0,39.8009796 0.000653061224,39.9355102 C0.00195918367,40.1709388 0.00489795918,40.4066939 0.0104489796,40.6427755 C0.0120816327,40.716898 0.0140408163,40.7906939 0.0163265306,40.8644898 C0.0248163265,41.16 0.0355918367,41.4564898 0.0509387755,41.7529796 C0.0519183673,41.7702857 0.0528979592,41.7872653 0.0535510204,41.8042449 C0.21355102,44.8573061 0.71477551,47.8114286 1.51836735,50.6316735 C1.52489796,50.6545306 1.53110204,50.6767347 1.53763265,50.6992653 C1.61697959,50.9761633 1.69991837,51.2517551 1.78514286,51.5260408 C1.80081633,51.5763265 1.81616327,51.6266122 1.83216327,51.676898 C1.90955102,51.9217959 1.98955102,52.1653878 2.07118367,52.4083265 C2.09763265,52.4863673 2.12408163,52.5647347 2.15085714,52.6427755 C2.224,52.856 2.2997551,53.0679184 2.3764898,53.2795102 C2.41502041,53.3853061 2.45355102,53.491102 2.49273469,53.5962449 C2.56065306,53.7781224 2.63053061,53.9590204 2.70073469,54.1392653 C2.75265306,54.2721633 2.80457143,54.4050612 2.85779592,54.5369796 C2.91885714,54.6891429 2.98155102,54.84 3.04457143,54.9911837 C3.11020408,55.1482449 3.17616327,55.3056327 3.24408163,55.4617143 C3.29795918,55.586449 3.35281633,55.7105306 3.408,55.8346122 C3.488,56.0142041 3.56865306,56.1937959 3.65126531,56.3717551 C3.69730612,56.4716735 3.74465306,56.5709388 3.79167347,56.6702041 C3.88571429,56.8693878 3.98073469,57.0679184 4.07836735,57.2651429 C4.11689796,57.3431837 4.15608163,57.420898 4.19526531,57.4989388 C4.30367347,57.714449 4.41338776,57.9296327 4.52538776,58.1428571 C4.55640816,58.2019592 4.58808163,58.2607347 4.61942857,58.3195102 C4.74122449,58.5484082 4.86465306,58.7769796 4.99102041,59.0032653 C5.0155102,59.0473469 5.04032653,59.0914286 5.06514286,59.1351837 C5.19934694,59.3738776 5.3355102,59.6106122 5.47428571,59.8463673 C5.49387755,59.8793469 5.51346939,59.9116735 5.53306122,59.9446531 C5.67804082,60.188898 5.82497959,60.4315102 5.97518367,60.6721633 C5.99085714,60.6973061 6.00685714,60.722449 6.02253061,60.7475918 C6.17665306,60.9937959 6.33338776,61.2383673 6.49306122,61.4809796 C6.50677551,61.5022041 6.52081633,61.523102 6.53485714,61.5443265 C6.6964898,61.788898 6.86040816,62.0318367 7.02693878,62.2728163 C7.04130612,62.2930612 7.05567347,62.3136327 7.06971429,62.3338776 C7.23657143,62.573551 7.40538776,62.8112653 7.57714286,63.0470204 C7.59379592,63.0702041 7.61110204,63.0930612 7.62808163,63.1165714 C7.79755102,63.3480816 7.96897959,63.5776327 8.14334694,63.8052245 C8.16489796,63.8333061 8.18644898,63.8610612 8.208,63.8888163 C8.37812245,64.1098776 8.55020408,64.3289796 8.72457143,64.546449 C8.75330612,64.5820408 8.78236735,64.6173061 8.81142857,64.6532245 C8.97926531,64.8605714 9.14938776,65.0669388 9.32146939,65.2710204 C9.35967347,65.3160816 9.39787755,65.3608163 9.43608163,65.405551 C9.60032653,65.5985306 9.76587755,65.7902041 9.93371429,65.9799184 C9.98302041,66.0354286 10.0326531,66.0906122 10.0822857,66.1461224 C10.24,66.3227755 10.3993469,66.4981224 10.56,66.6715102 C10.6233469,66.7397551 10.6870204,66.8070204 10.7506939,66.8749388 C10.8999184,67.0336327 11.0497959,67.1913469 11.2013061,67.3477551 C11.2796735,67.4284082 11.3590204,67.5080816 11.4380408,67.5880816 C11.5774694,67.7291429 11.716898,67.8692245 11.8579592,68.008 C11.9526531,68.1007347 12.0483265,68.1928163 12.1436735,68.2845714 C12.2716735,68.4083265 12.4003265,68.5314286 12.5299592,68.6532245 C12.6413061,68.7570612 12.7536327,68.8602449 12.8659592,68.963102 C12.9825306,69.0698776 13.099102,69.1766531 13.2166531,69.2821224 C13.3453061,69.3970612 13.4749388,69.5106939 13.604898,69.6236735 C13.7090612,69.7147755 13.8132245,69.805551 13.9183673,69.8950204 C14.064,70.0194286 14.2106122,70.1418776 14.3578776,70.2636735 C14.4502857,70.3407347 14.5426939,70.4171429 14.6357551,70.4932245 C14.7973878,70.6248163 14.9603265,70.7541224 15.1239184,70.883102 C15.2052245,70.9474286 15.2865306,71.0117551 15.3684898,71.0754286 C15.5448163,71.2122449 15.7227755,71.3467755 15.9017143,71.4806531 C15.9732245,71.5342041 16.0444082,71.5880816 16.1165714,71.6413061 C16.3062857,71.7813878 16.4976327,71.9195102 16.6899592,72.0563265 C16.7533061,72.1013878 16.8163265,72.1467755 16.8803265,72.1918367 C17.0808163,72.3322449 17.2829388,72.4710204 17.4860408,72.6081633 C17.5441633,72.6473469 17.6022857,72.6868571 17.6607347,72.7260408 C17.8687347,72.8648163 18.0783673,73.0013061 18.2893061,73.1364898 C18.3454694,73.1724082 18.4013061,73.2086531 18.4574694,73.2442449 C18.6706939,73.379102 18.884898,73.5116735 19.1007347,73.6426122 C19.156898,73.676898 19.2133878,73.7115102 19.2698776,73.7451429 C19.4847347,73.874449 19.700898,74.0008163 19.9183673,74.1258776 C19.9787755,74.1601633 20.0385306,74.195102 20.0986122,74.2293878 C20.3118367,74.3502041 20.5263673,74.4687347 20.741551,74.5859592 C20.8091429,74.6225306 20.8767347,74.6594286 20.9443265,74.696 C21.1516735,74.8070204 21.3606531,74.9160816 21.5706122,75.0238367 C21.6489796,75.064 21.7270204,75.1044898 21.8057143,75.1443265 C22.004898,75.2445714 22.2050612,75.3428571 22.4058776,75.4401633 C22.4982857,75.484898 22.5906939,75.5296327 22.6834286,75.5737143 C22.869551,75.6622041 23.0569796,75.7480816 23.2444082,75.8336327 C23.3557551,75.8839184 23.4667755,75.9348571 23.578449,75.9844898 C23.7482449,76.0595918 23.9193469,76.1333878 24.090449,76.2068571 C24.2226939,76.2630204 24.3549388,76.3195102 24.4881633,76.3743673 C24.6386939,76.4370612 24.7905306,76.4981224 24.9423673,76.5588571 C25.099102,76.6212245 25.2558367,76.6835918 25.4132245,76.7443265 C25.5425306,76.7936327 25.6721633,76.8422857 25.8017959,76.8906122 C25.9846531,76.9588571 26.1681633,77.026449 26.3523265,77.0917551 C26.4574694,77.1296327 26.5632653,77.1658776 26.6687347,77.202449 C26.8803265,77.2759184 27.0925714,77.3480816 27.3057959,77.4179592 C27.3851429,77.4437551 27.4644898,77.4692245 27.5435102,77.4943673 C27.7854694,77.5717551 28.0277551,77.6478367 28.2716735,77.7203265 C28.3239184,77.736 28.3761633,77.7513469 28.4284082,77.7666939 C28.7007347,77.8470204 28.9740408,77.9247347 29.2489796,77.9995102 C29.2737959,78.0060408 29.2986122,78.0125714 29.3234286,78.019102 C31.4687347,78.5960816 33.6875102,78.995102 35.962449,79.2040816 C36.6213878,79.2700408 37.2826122,79.3193469 37.9457959,79.347102 L38.1518367,79.3457959 C38.1596735,79.3461224 38.1675102,79.3467755 38.1753469,79.347102 C38.1681633,79.3467755 38.1606531,79.3461224 38.1534694,79.3457959 L39.2222041,79.3392653 C39.2382041,79.3324082 39.2542041,79.3245714 39.2705306,79.3177143 C39.2542041,79.3245714 39.2385306,79.3324082 39.2222041,79.3392653 L41.4674286,79.3262041 C42.2200816,79.2873469 42.965551,79.2256327 43.7057959,79.1459592 C63.6574694,76.9993469 78.8715102,60.2946939 79.0618776,40.2493061 L75.0661224,40.2019592 Z" id="Fill-1" fill="#FFFFFF" mask="url(#mask-2)"></path>
                </g>
                <path d="M39.510498,43.6505796 L39.5238857,43.6505796 L39.5238857,43.6502531 C39.591151,43.6499265 39.6802939,43.6482939 39.7302531,43.6456816 C41.6763755,43.5451102 43.1895184,41.948049 43.2140082,40.0267429 L39.5238857,39.9826612 L43.1810286,39.5689469 C42.9707429,37.6453551 41.2923755,36.1981714 39.3361306,36.2997224 C37.3070694,36.4048653 35.7482122,38.1341714 35.8530286,40.1625796 C35.9532735,42.1093551 37.5506612,43.6238041 39.4719673,43.6499265 L39.4719673,43.6505796 L39.510498,43.6505796 Z" id="Fill-4" fill="#FFFFFF"></path>
            </g>
        </g>
    </g>
</svg>