<?xml version="1.0" encoding="UTF-8"?>
<svg width="61px" height="60px" viewBox="0 0 61 60" version="1.1" xmlns="http://www.w3.org/2000/svg" xmlns:xlink="http://www.w3.org/1999/xlink">
    <!-- Generator: Sketch 54.1 (76490) - https://sketchapp.com -->
    <title>gea-logo</title>
    <desc>Created with Sketch.</desc>
    <defs>
        <linearGradient x1="49.987368%" y1="-40.3967037%" x2="49.987368%" y2="143.599588%" id="linearGradient-1">
            <stop stop-color="#77D2EB" offset="14.1%"></stop>
            <stop stop-color="#6665D8" offset="56.57%"></stop>
            <stop stop-color="#5B3664" offset="92.69%"></stop>
        </linearGradient>
        <linearGradient x1="49.9626364%" y1="118.194435%" x2="49.9626364%" y2="-32.2183555%" id="linearGradient-2">
            <stop stop-color="#77D2EB" offset="14.1%"></stop>
            <stop stop-color="#6665D8" offset="56.57%"></stop>
            <stop stop-color="#5B3664" offset="92.69%"></stop>
        </linearGradient>
    </defs>
    <g id="Page-1" stroke="none" stroke-width="1" fill="none" fill-rule="evenodd">
        <g id="Gea_LP_Homepage" transform="translate(-361.000000, -12.000000)" stroke="#979797">
            <g id="HEADER-MENU">
                <g id="Group-2">
                    <g id="gea-logo" transform="translate(361.000000, 12.000000)">
                        <g id="logo" stroke="none" transform="translate(0.000000, 0.244898)">
                            <path d="M29.4320988,16.0653061 C21.8271605,16.4571429 15.9506173,22.8979592 16.345679,30.4408163 C16.4691358,32.9387755 17.2839506,35.2408163 18.5432099,37.1755102 L30.0493827,37.1755102 L30.0987654,33.6244898 C28.0246914,33.6244898 26.3209877,32.0326531 26.1975309,29.9510204 C26.0740741,27.8204082 27.7530864,25.9836735 29.9012346,25.8857143 C31.9753086,25.7877551 33.7530864,27.3061224 33.9753086,29.3387755 L43.8518519,28.2367347 C43.0617284,21.0857143 36.7654321,15.6734694 29.4320988,16.0653061 Z" id="Path" fill="#77D2EB" fill-rule="nonzero"></path>
                            <path d="M30.8148148,43.3959184 C38.1481481,43.0285714 43.8271605,37.1020408 43.9012346,29.9265306 L33.9506173,29.8040816 C33.9259259,31.8367347 32.3209877,33.5020408 30.2469136,33.6244898 C30.1728395,33.6244898 30.0987654,33.6244898 30.0493827,33.6244898 L30,37.1755102 L18.4938272,37.1755102 C21.1111111,41.1428571 25.7283951,43.6653061 30.8148148,43.3959184 Z" id="Path" fill="#2C3DA8" fill-rule="nonzero"></path>
                            <path d="M47.1604938,33.4040816 C47.2592593,32.2530612 47.2592593,31.0530612 47.2098765,29.9510204 L43.9012346,29.9020408 C43.8271605,37.077551 38.1234568,43.0040816 30.8148148,43.3714286 C25.7037037,43.6408163 21.1111111,41.1183673 18.5185185,37.1510204 L14.617284,37.1020408 C13.4814815,35.0693878 13.0123457,32.3020408 12.9382716,30.5877551 C12.4444444,21.1836735 19.7283951,13.1755102 29.2098765,12.6857143 C38.345679,12.2204082 46.1975309,18.9306122 47.1851852,27.844898 L59.9012346,26.4244898 C58.2222222,11.4612245 45.4567901,0.0734693878 30.2716049,-1.13686838e-13 C30.1234568,-1.13686838e-13 30,-1.13686838e-13 29.8518519,-1.13686838e-13 C29.8024691,-1.13686838e-13 29.7283951,-1.13686838e-13 29.6790123,-1.13686838e-13 C14.9135802,0.269387755 1.11111111,13.2489796 0.938271605,29.3877551 C0.740740741,45.5265306 14.2469136,58.8244898 29.0123457,59.4367347 L29.9753086,59.4367347 C40.0740741,55.077551 45.9753086,46.3836735 47.1604938,33.4040816 Z" id="Path" fill="url(#linearGradient-1)" fill-rule="nonzero"></path>
                            <path d="M60.0740741,30.122449 L57.0617284,30.0979592 C57.1111111,30.8571429 57.1358025,31.6163265 57.1358025,32.4 C56.962963,46.1632653 46.6666667,57.4285714 33.3580247,59.3142857 C48.4444444,57.6734694 59.9506173,45.1591837 60.0740741,30.122449 Z" id="Path" fill="#2C3DA8" fill-rule="nonzero"></path>
                            <path d="M57.1358025,32.3755102 C57.1358025,31.6163265 57.1111111,30.8326531 57.0617284,30.0734694 L47.2345679,29.9510204 C47.2839506,31.0530612 47.2839506,32.2285714 47.1851852,33.4040816 C46,46.3591837 40.0987654,55.077551 29.9753086,59.4367347 L31.6790123,59.4367347 C32.2469136,59.4122449 32.8148148,59.3632653 33.382716,59.2897959 C46.6666667,57.4040816 56.962963,46.1387755 57.1358025,32.3755102 Z" id="Path" fill="url(#linearGradient-2)" fill-rule="nonzero"></path>
                            <path d="M1.08641975,29.3877551 C1.28395062,13.2489796 15.0864198,0.269387755 29.8271605,0 C29.7283951,0 29.654321,0 29.5555556,0 C29.4814815,0 29.4320988,0 29.3580247,0 C29.1604938,0 28.9382716,0.0244897959 28.7407407,0.0244897959 C28.7160494,0.0244897959 28.691358,0.0244897959 28.6666667,0.0244897959 C25.8518519,0.171428571 23.1358025,0.710204082 20.5925926,1.56734694 C20.5679012,1.56734694 20.5679012,1.56734694 20.5432099,1.59183673 C20.345679,1.66530612 20.1234568,1.73877551 19.9259259,1.8122449 C19.9012346,1.8122449 19.8518519,1.83673469 19.8271605,1.83673469 C19.6296296,1.91020408 19.4567901,1.98367347 19.2592593,2.05714286 C19.2098765,2.08163265 19.1604938,2.08163265 19.1111111,2.10612245 C18.9382716,2.17959184 18.7654321,2.25306122 18.5925926,2.32653061 C18.5185185,2.35102041 18.4691358,2.3755102 18.3950617,2.4 C18.2469136,2.47346939 18.0987654,2.52244898 17.9259259,2.59591837 C17.8518519,2.62040816 17.7777778,2.66938776 17.7037037,2.69387755 C17.5555556,2.76734694 17.4320988,2.81632653 17.2839506,2.88979592 C17.1851852,2.93877551 17.1111111,2.96326531 17.0123457,3.0122449 C16.8888889,3.06122449 16.7654321,3.13469388 16.6419753,3.20816327 C16.5432099,3.25714286 16.4444444,3.30612245 16.345679,3.35510204 C16.2222222,3.40408163 16.1234568,3.47755102 16,3.52653061 C15.9012346,3.5755102 15.8024691,3.6244898 15.7037037,3.69795918 C15.6049383,3.74693878 15.4814815,3.82040816 15.382716,3.86938776 C15.2839506,3.91836735 15.1604938,3.99183673 15.0617284,4.04081633 C14.962963,4.08979592 14.8641975,4.16326531 14.7654321,4.2122449 C14.6666667,4.28571429 14.5432099,4.33469388 14.4444444,4.40816327 C14.345679,4.45714286 14.2469136,4.53061224 14.1481481,4.57959184 C14.0493827,4.65306122 13.9259259,4.70204082 13.8271605,4.7755102 C13.7283951,4.84897959 13.6296296,4.89795918 13.5308642,4.97142857 C13.4320988,5.04489796 13.3333333,5.11836735 13.2098765,5.16734694 C13.1111111,5.24081633 13.0123457,5.28979592 12.9135802,5.36326531 C12.8148148,5.43673469 12.7160494,5.51020408 12.617284,5.55918367 C12.5185185,5.63265306 12.4197531,5.70612245 12.3209877,5.77959184 C12.2222222,5.85306122 12.1481481,5.90204082 12.0493827,5.9755102 C11.9506173,6.04897959 11.8271605,6.14693878 11.7283951,6.22040816 C11.654321,6.29387755 11.5555556,6.34285714 11.4814815,6.41632653 C11.3580247,6.51428571 11.2592593,6.5877551 11.1358025,6.68571429 C11.0617284,6.73469388 10.9876543,6.80816327 10.9382716,6.85714286 C10.8148148,6.95510204 10.691358,7.05306122 10.5679012,7.1755102 C10.5185185,7.2244898 10.4444444,7.27346939 10.3950617,7.32244898 C10.2716049,7.44489796 10.1234568,7.54285714 10,7.66530612 C9.95061728,7.71428571 9.90123457,7.73877551 9.87654321,7.7877551 C9.72839506,7.91020408 9.60493827,8.05714286 9.45679012,8.17959184 C9.43209877,8.20408163 9.38271605,8.22857143 9.35802469,8.27755102 C9.20987654,8.4244898 9.0617284,8.57142857 8.91358025,8.71836735 C8.88888889,8.74285714 8.86419753,8.74285714 8.86419753,8.76734694 C8.71604938,8.91428571 8.54320988,9.08571429 8.39506173,9.25714286 C8.39506173,9.25714286 8.39506173,9.28163265 8.37037037,9.28163265 C5.58024691,12.2204082 3.38271605,15.6979592 1.97530864,19.5428571 C1.97530864,19.5673469 1.97530864,19.5673469 1.95061728,19.5918367 C1.87654321,19.7877551 1.80246914,19.9836735 1.72839506,20.2040816 C1.72839506,20.2285714 1.7037037,20.277551 1.7037037,20.3020408 C1.65432099,20.4734694 1.58024691,20.6693878 1.5308642,20.8408163 C1.50617284,20.8897959 1.50617284,20.9632653 1.48148148,21.0122449 C1.43209877,21.1836735 1.38271605,21.3306122 1.33333333,21.5020408 C1.30864198,21.5755102 1.28395062,21.6489796 1.25925926,21.7469388 C1.20987654,21.8938776 1.18518519,22.0408163 1.13580247,22.1877551 C1.11111111,22.2857143 1.08641975,22.3836735 1.0617284,22.4816327 C1.03703704,22.6040816 1.01234568,22.7265306 0.962962963,22.8489796 C0.938271605,22.9714286 0.913580247,23.0938776 0.888888889,23.2163265 C0.864197531,23.3142857 0.839506173,23.4367347 0.814814815,23.5346939 C0.790123457,23.6816327 0.765432099,23.8285714 0.716049383,23.9510204 C0.691358025,24.0489796 0.691358025,24.122449 0.666666667,24.2204082 C0.641975309,24.3673469 0.617283951,24.5387755 0.592592593,24.7102041 C0.567901235,24.7836735 0.567901235,24.8571429 0.543209877,24.955102 C0.518518519,25.1265306 0.49382716,25.2979592 0.469135802,25.4693878 C0.469135802,25.5428571 0.444444444,25.6163265 0.444444444,25.6653061 C0.419753086,25.8367347 0.395061728,26.0326531 0.37037037,26.2040816 C0.37037037,26.277551 0.345679012,26.3265306 0.345679012,26.4 C0.320987654,26.5714286 0.296296296,26.7673469 0.296296296,26.9387755 C0.296296296,27.0122449 0.271604938,27.0857143 0.271604938,27.1346939 C0.24691358,27.3061224 0.24691358,27.477551 0.222222222,27.6734694 C0.222222222,27.7469388 0.222222222,27.844898 0.197530864,27.9183673 C0.197530864,28.0897959 0.172839506,28.2367347 0.172839506,28.4081633 C0.172839506,28.5061224 0.172839506,28.6040816 0.172839506,28.7020408 C0.172839506,28.8489796 0.172839506,28.9714286 0.172839506,29.1183673 C0.172839506,29.2408163 0.172839506,29.3877551 0.172839506,29.5102041 C0.172839506,29.6081633 0.172839506,29.7061224 0.172839506,29.8040816 C0.172839506,29.9755102 0.172839506,30.1469388 0.172839506,30.3428571 C0.172839506,30.3918367 0.172839506,30.4653061 0.172839506,30.5142857 C0.172839506,30.7346939 0.197530864,30.955102 0.197530864,31.1755102 C0.197530864,31.2 0.197530864,31.2 0.197530864,31.2244898 C0.320987654,33.5020408 0.691358025,35.7306122 1.30864198,37.8367347 C1.30864198,37.8612245 1.30864198,37.8612245 1.33333333,37.8857143 C1.38271605,38.0816327 1.45679012,38.3020408 1.5308642,38.4979592 C1.5308642,38.5469388 1.55555556,38.5714286 1.55555556,38.6204082 C1.60493827,38.8163265 1.67901235,38.9877551 1.72839506,39.1591837 C1.75308642,39.2081633 1.77777778,39.2816327 1.77777778,39.3306122 C1.82716049,39.5020408 1.90123457,39.6489796 1.95061728,39.7959184 C1.97530864,39.8693878 2,39.9428571 2.04938272,40.0408163 C2.09876543,40.1877551 2.14814815,40.3102041 2.19753086,40.4571429 C2.24691358,40.555102 2.27160494,40.6530612 2.32098765,40.7510204 C2.37037037,40.8734694 2.41975309,40.9714286 2.4691358,41.0938776 C2.51851852,41.2163265 2.56790123,41.3387755 2.61728395,41.4367347 C2.66666667,41.5346939 2.69135802,41.6326531 2.74074074,41.7061224 C2.79012346,41.8530612 2.86419753,41.9755102 2.91358025,42.0979592 C2.9382716,42.1714286 2.98765432,42.244898 3.01234568,42.3183673 C3.08641975,42.4653061 3.16049383,42.6122449 3.2345679,42.7591837 C3.25925926,42.8081633 3.28395062,42.8816327 3.33333333,42.9306122 C3.40740741,43.1020408 3.50617284,43.2489796 3.58024691,43.4204082 C3.60493827,43.4693878 3.62962963,43.5183673 3.65432099,43.5428571 C3.75308642,43.7142857 3.85185185,43.8857143 3.92592593,44.0571429 C3.95061728,44.0816327 3.97530864,44.1306122 3.97530864,44.155102 C4.07407407,44.3265306 4.17283951,44.522449 4.2962963,44.6938776 C4.32098765,44.7183673 4.32098765,44.7428571 4.34567901,44.7673469 C4.44444444,44.9387755 4.56790123,45.1346939 4.69135802,45.3061224 C4.69135802,45.3306122 4.71604938,45.355102 4.71604938,45.355102 C4.83950617,45.5510204 4.96296296,45.722449 5.0617284,45.8938776 C5.0617284,45.9183673 5.08641975,45.9183673 5.08641975,45.9428571 C5.20987654,46.1142857 5.33333333,46.3102041 5.45679012,46.4816327 C5.45679012,46.5061224 5.48148148,46.5061224 5.48148148,46.5306122 C5.60493827,46.7020408 5.72839506,46.8979592 5.87654321,47.0693878 C5.90123457,47.0938776 5.90123457,47.0938776 5.92592593,47.1183673 C6.04938272,47.2897959 6.17283951,47.4612245 6.32098765,47.6326531 C6.34567901,47.6571429 6.34567901,47.6816327 6.37037037,47.7061224 C6.49382716,47.877551 6.61728395,48.0244898 6.7654321,48.1959184 C6.79012346,48.2204082 6.81481481,48.244898 6.83950617,48.2693878 C6.96296296,48.4163265 7.08641975,48.5877551 7.2345679,48.7346939 C7.25925926,48.7591837 7.28395062,48.8081633 7.33333333,48.8326531 C7.45679012,48.9795918 7.58024691,49.1265306 7.7037037,49.2734694 C7.75308642,49.322449 7.77777778,49.3469388 7.82716049,49.3959184 C7.95061728,49.5183673 8.07407407,49.6653061 8.19753086,49.7877551 C8.24691358,49.8367347 8.2962963,49.8857143 8.34567901,49.9346939 C8.4691358,50.0571429 8.56790123,50.1795918 8.69135802,50.277551 C8.74074074,50.3265306 8.81481481,50.4 8.86419753,50.4489796 C8.96296296,50.5469388 9.08641975,50.6693878 9.18518519,50.7673469 C9.25925926,50.8408163 9.33333333,50.9142857 9.40740741,50.9632653 C9.50617284,51.0612245 9.60493827,51.1591837 9.7037037,51.2326531 C9.77777778,51.3061224 9.87654321,51.3795918 9.95061728,51.4530612 C10.0493827,51.5265306 10.1234568,51.6244898 10.2222222,51.6979592 C10.3209877,51.7959184 10.4197531,51.8693878 10.5185185,51.9428571 C10.5925926,52.0163265 10.6666667,52.0897959 10.7654321,52.1387755 C10.8641975,52.2367347 10.9876543,52.3346939 11.0864198,52.4081633 C11.1604938,52.4571429 11.2345679,52.5306122 11.308642,52.5795918 C11.4320988,52.677551 11.5555556,52.7755102 11.6790123,52.8734694 C11.7283951,52.922449 11.8024691,52.9714286 11.8518519,53.0204082 C11.9753086,53.1183673 12.1234568,53.2163265 12.2469136,53.3142857 C12.2962963,53.3632653 12.345679,53.3877551 12.4197531,53.4367347 C12.5679012,53.5346939 12.7160494,53.6571429 12.8641975,53.755102 C12.9135802,53.7795918 12.962963,53.8285714 13.0123457,53.8530612 C13.1604938,53.9510204 13.308642,54.0734694 13.4814815,54.1714286 C13.5308642,54.1959184 13.5802469,54.2204082 13.6049383,54.2693878 C13.7530864,54.3673469 13.9259259,54.4653061 14.0740741,54.5877551 C14.1234568,54.6122449 14.1481481,54.6367347 14.1975309,54.6612245 C14.3703704,54.7591837 14.5185185,54.8571429 14.691358,54.955102 C14.7407407,54.9795918 14.7654321,55.0040816 14.8148148,55.0285714 C14.9876543,55.1265306 15.1358025,55.2244898 15.308642,55.322449 C15.3580247,55.3469388 15.4074074,55.3714286 15.4567901,55.3959184 C15.6296296,55.4938776 15.7777778,55.5673469 15.9506173,55.6653061 C16,55.6897959 16.0493827,55.7142857 16.0987654,55.7387755 C16.2469136,55.8122449 16.4197531,55.9102041 16.5679012,55.9836735 C16.617284,56.0081633 16.691358,56.0326531 16.7407407,56.0816327 C16.8888889,56.155102 17.037037,56.2285714 17.1851852,56.3020408 C17.2592593,56.3265306 17.3333333,56.3755102 17.382716,56.4 C17.5308642,56.4734694 17.654321,56.522449 17.8024691,56.5959184 C17.8765432,56.644898 17.9753086,56.6693878 18.0493827,56.7183673 C18.1728395,56.7673469 18.2962963,56.8408163 18.4444444,56.8897959 C18.5432099,56.9387755 18.6419753,56.9632653 18.7407407,57.0122449 C18.8641975,57.0612245 18.962963,57.1102041 19.0864198,57.1591837 C19.2098765,57.2081633 19.3333333,57.2571429 19.4320988,57.3061224 C19.5308642,57.355102 19.6296296,57.3795918 19.7283951,57.4040816 C19.8765432,57.4530612 20,57.5020408 20.1481481,57.5510204 C20.2222222,57.5755102 20.2962963,57.6 20.3950617,57.6244898 C20.5432099,57.6734694 20.7160494,57.722449 20.8888889,57.7959184 C20.9382716,57.8204082 21.0123457,57.844898 21.0617284,57.844898 C21.2345679,57.8938776 21.4320988,57.9673469 21.6049383,58.0163265 C21.654321,58.0163265 21.6790123,58.0408163 21.7283951,58.0408163 C21.9259259,58.0897959 22.1481481,58.1632653 22.345679,58.2122449 C22.3703704,58.2122449 22.3950617,58.2122449 22.3950617,58.2367347 C24.5432099,58.8 26.7901235,59.1428571 29.0864198,59.2408163 C14.3950617,58.8244898 0.913580247,45.5265306 1.08641975,29.3877551 Z" id="Path" fill="#77D2EB" fill-rule="nonzero"></path>
                            <path d="M29.1604938,59.4367347 C29.4074074,59.4367347 29.654321,59.4612245 29.9259259,59.4612245 C29.6790123,59.4612245 29.4074074,59.4612245 29.1604938,59.4367347 Z" id="Path" fill="#77D2EB" fill-rule="nonzero"></path>
                            <path d="M30.1975309,29.7306122 L32.962963,29.4122449 C32.8148148,27.9673469 31.5308642,26.8897959 30.0493827,26.9632653 C28.5185185,27.0367347 27.3333333,28.3346939 27.4074074,29.8530612 C27.4814815,31.322449 28.691358,32.4489796 30.1481481,32.4734694 L30.1481481,32.4734694 C30.1481481,32.4734694 30.1728395,32.4734694 30.1728395,32.4734694 C30.1728395,32.4734694 30.1728395,32.4734694 30.1728395,32.4734694 L30.1728395,32.4734694 C30.2222222,32.4734694 30.2962963,32.4734694 30.3209877,32.4734694 C31.8024691,32.4 32.9382716,31.2 32.962963,29.755102 L30.1975309,29.7306122 Z" id="Path" fill="#80E3A9" fill-rule="nonzero"></path>
                        </g>
                    </g>
                </g>
            </g>
        </g>
    </g>
</svg>